<mxfile host="app.diagrams.net" modified="2024-05-02T17:05:24.934Z" agent="Mozilla/5.0 (Windows NT 10.0; Win64; x64) AppleWebKit/537.36 (KHTML, like Gecko) Chrome/121.0.0.0 Safari/537.36 OPR/107.0.0.0 (Edition std-1)" etag="IrMksfkucQRaApaYTmY3" version="24.3.1" type="device">
  <diagram name="Strona-1" id="8YiN9BgmHyd85JXXE1h1">
    <mxGraphModel dx="1889" dy="2917" grid="1" gridSize="10" guides="1" tooltips="1" connect="1" arrows="1" fold="1" page="1" pageScale="1" pageWidth="827" pageHeight="1169" math="0" shadow="0">
      <root>
        <mxCell id="0" />
        <mxCell id="1" parent="0" />
        <mxCell id="IdJCSnWXdfJc_-B1oaeK-6" style="edgeStyle=orthogonalEdgeStyle;rounded=0;orthogonalLoop=1;jettySize=auto;html=1;entryX=0.5;entryY=0;entryDx=0;entryDy=0;" parent="1" source="IdJCSnWXdfJc_-B1oaeK-1" target="IdJCSnWXdfJc_-B1oaeK-4" edge="1">
          <mxGeometry relative="1" as="geometry" />
        </mxCell>
        <mxCell id="z1yuDFzPrRRWrIJaIIHn-4" style="edgeStyle=orthogonalEdgeStyle;rounded=0;orthogonalLoop=1;jettySize=auto;html=1;exitX=0;exitY=0.5;exitDx=0;exitDy=0;entryX=0.5;entryY=0;entryDx=0;entryDy=0;" parent="1" source="IdJCSnWXdfJc_-B1oaeK-1" target="z1yuDFzPrRRWrIJaIIHn-3" edge="1">
          <mxGeometry relative="1" as="geometry" />
        </mxCell>
        <mxCell id="IdJCSnWXdfJc_-B1oaeK-1" value="Core" style="rounded=0;whiteSpace=wrap;html=1;fillColor=#f8cecc;strokeColor=#b85450;" parent="1" vertex="1">
          <mxGeometry x="410" y="290" width="60" height="60" as="geometry" />
        </mxCell>
        <mxCell id="IdJCSnWXdfJc_-B1oaeK-16" style="edgeStyle=orthogonalEdgeStyle;rounded=0;orthogonalLoop=1;jettySize=auto;html=1;exitX=0;exitY=0.75;exitDx=0;exitDy=0;entryX=0.5;entryY=0;entryDx=0;entryDy=0;" parent="1" source="IdJCSnWXdfJc_-B1oaeK-4" target="IdJCSnWXdfJc_-B1oaeK-7" edge="1">
          <mxGeometry relative="1" as="geometry" />
        </mxCell>
        <mxCell id="IdJCSnWXdfJc_-B1oaeK-18" style="edgeStyle=orthogonalEdgeStyle;rounded=0;orthogonalLoop=1;jettySize=auto;html=1;exitX=1;exitY=0.75;exitDx=0;exitDy=0;entryX=0.5;entryY=0;entryDx=0;entryDy=0;" parent="1" source="IdJCSnWXdfJc_-B1oaeK-4" target="IdJCSnWXdfJc_-B1oaeK-8" edge="1">
          <mxGeometry relative="1" as="geometry" />
        </mxCell>
        <mxCell id="IdJCSnWXdfJc_-B1oaeK-32" style="edgeStyle=orthogonalEdgeStyle;rounded=0;orthogonalLoop=1;jettySize=auto;html=1;" parent="1" source="IdJCSnWXdfJc_-B1oaeK-4" target="IdJCSnWXdfJc_-B1oaeK-29" edge="1">
          <mxGeometry relative="1" as="geometry" />
        </mxCell>
        <mxCell id="IdJCSnWXdfJc_-B1oaeK-80" style="edgeStyle=orthogonalEdgeStyle;rounded=0;orthogonalLoop=1;jettySize=auto;html=1;exitX=0;exitY=0.5;exitDx=0;exitDy=0;entryX=0.5;entryY=0;entryDx=0;entryDy=0;" parent="1" source="IdJCSnWXdfJc_-B1oaeK-4" target="IdJCSnWXdfJc_-B1oaeK-52" edge="1">
          <mxGeometry relative="1" as="geometry" />
        </mxCell>
        <mxCell id="IdJCSnWXdfJc_-B1oaeK-4" value="&lt;font style=&quot;font-size: 11px;&quot;&gt;Silicon&lt;/font&gt;&lt;div&gt;&lt;font style=&quot;font-size: 11px;&quot;&gt;Carbide&lt;/font&gt;&lt;/div&gt;" style="rounded=0;whiteSpace=wrap;html=1;" parent="1" vertex="1">
          <mxGeometry x="610" y="370" width="60" height="60" as="geometry" />
        </mxCell>
        <mxCell id="IdJCSnWXdfJc_-B1oaeK-5" value="&lt;font style=&quot;font-size: 10px;&quot;&gt;Interference&lt;br&gt;Drill&lt;/font&gt;" style="rounded=0;whiteSpace=wrap;html=1;" parent="1" vertex="1">
          <mxGeometry x="190" y="220" width="60" height="60" as="geometry" />
        </mxCell>
        <mxCell id="IdJCSnWXdfJc_-B1oaeK-11" value="" style="edgeStyle=orthogonalEdgeStyle;rounded=0;orthogonalLoop=1;jettySize=auto;html=1;" parent="1" source="IdJCSnWXdfJc_-B1oaeK-7" target="IdJCSnWXdfJc_-B1oaeK-9" edge="1">
          <mxGeometry relative="1" as="geometry" />
        </mxCell>
        <mxCell id="IdJCSnWXdfJc_-B1oaeK-7" value="Magnesium" style="rounded=0;whiteSpace=wrap;html=1;fontSize=11;" parent="1" vertex="1">
          <mxGeometry x="570" y="450" width="60" height="60" as="geometry" />
        </mxCell>
        <mxCell id="IdJCSnWXdfJc_-B1oaeK-19" value="" style="edgeStyle=orthogonalEdgeStyle;rounded=0;orthogonalLoop=1;jettySize=auto;html=1;" parent="1" source="IdJCSnWXdfJc_-B1oaeK-8" target="IdJCSnWXdfJc_-B1oaeK-10" edge="1">
          <mxGeometry relative="1" as="geometry" />
        </mxCell>
        <mxCell id="IdJCSnWXdfJc_-B1oaeK-8" value="Azure&lt;br&gt;Moss" style="rounded=0;whiteSpace=wrap;html=1;" parent="1" vertex="1">
          <mxGeometry x="650" y="450" width="60" height="60" as="geometry" />
        </mxCell>
        <mxCell id="IdJCSnWXdfJc_-B1oaeK-27" value="" style="edgeStyle=orthogonalEdgeStyle;rounded=0;orthogonalLoop=1;jettySize=auto;html=1;" parent="1" source="IdJCSnWXdfJc_-B1oaeK-9" target="IdJCSnWXdfJc_-B1oaeK-24" edge="1">
          <mxGeometry relative="1" as="geometry" />
        </mxCell>
        <mxCell id="IdJCSnWXdfJc_-B1oaeK-9" value="Quartz Glass" style="rounded=0;whiteSpace=wrap;html=1;" parent="1" vertex="1">
          <mxGeometry x="570" y="530" width="60" height="60" as="geometry" />
        </mxCell>
        <mxCell id="IdJCSnWXdfJc_-B1oaeK-10" value="Carbon Powder" style="rounded=0;whiteSpace=wrap;html=1;" parent="1" vertex="1">
          <mxGeometry x="650" y="530" width="60" height="60" as="geometry" />
        </mxCell>
        <mxCell id="IdJCSnWXdfJc_-B1oaeK-24" value="Resonant&lt;div&gt;Crystal&lt;/div&gt;" style="rounded=0;whiteSpace=wrap;html=1;" parent="1" vertex="1">
          <mxGeometry x="570" y="610" width="60" height="60" as="geometry" />
        </mxCell>
        <mxCell id="IdJCSnWXdfJc_-B1oaeK-50" value="" style="edgeStyle=orthogonalEdgeStyle;rounded=0;orthogonalLoop=1;jettySize=auto;html=1;" parent="1" source="IdJCSnWXdfJc_-B1oaeK-25" target="IdJCSnWXdfJc_-B1oaeK-26" edge="1">
          <mxGeometry relative="1" as="geometry" />
        </mxCell>
        <mxCell id="IdJCSnWXdfJc_-B1oaeK-25" value="Neptunium&lt;div&gt;Ore&lt;/div&gt;" style="rounded=0;whiteSpace=wrap;html=1;" parent="1" vertex="1">
          <mxGeometry x="490" y="610" width="60" height="60" as="geometry" />
        </mxCell>
        <mxCell id="IdJCSnWXdfJc_-B1oaeK-26" value="Neptunium" style="rounded=0;whiteSpace=wrap;html=1;" parent="1" vertex="1">
          <mxGeometry x="490" y="690" width="60" height="60" as="geometry" />
        </mxCell>
        <mxCell id="IdJCSnWXdfJc_-B1oaeK-28" value="Contained&lt;br&gt;Antimatter" style="rounded=0;whiteSpace=wrap;html=1;" parent="1" vertex="1">
          <mxGeometry x="410" y="690" width="60" height="60" as="geometry" />
        </mxCell>
        <mxCell id="z1yuDFzPrRRWrIJaIIHn-29" style="edgeStyle=orthogonalEdgeStyle;rounded=0;orthogonalLoop=1;jettySize=auto;html=1;exitX=0;exitY=0.75;exitDx=0;exitDy=0;entryX=0.5;entryY=0;entryDx=0;entryDy=0;" parent="1" source="IdJCSnWXdfJc_-B1oaeK-29" target="IdJCSnWXdfJc_-B1oaeK-44" edge="1">
          <mxGeometry relative="1" as="geometry" />
        </mxCell>
        <mxCell id="z1yuDFzPrRRWrIJaIIHn-31" style="edgeStyle=orthogonalEdgeStyle;rounded=0;orthogonalLoop=1;jettySize=auto;html=1;exitX=1;exitY=0.75;exitDx=0;exitDy=0;entryX=0.5;entryY=0;entryDx=0;entryDy=0;" parent="1" source="IdJCSnWXdfJc_-B1oaeK-29" target="IdJCSnWXdfJc_-B1oaeK-31" edge="1">
          <mxGeometry relative="1" as="geometry" />
        </mxCell>
        <mxCell id="z1yuDFzPrRRWrIJaIIHn-32" style="edgeStyle=orthogonalEdgeStyle;rounded=0;orthogonalLoop=1;jettySize=auto;html=1;entryX=0.5;entryY=0;entryDx=0;entryDy=0;" parent="1" source="IdJCSnWXdfJc_-B1oaeK-29" target="IdJCSnWXdfJc_-B1oaeK-75" edge="1">
          <mxGeometry relative="1" as="geometry" />
        </mxCell>
        <mxCell id="IdJCSnWXdfJc_-B1oaeK-29" value="Water" style="rounded=0;whiteSpace=wrap;html=1;" parent="1" vertex="1">
          <mxGeometry x="810" y="450" width="60" height="60" as="geometry" />
        </mxCell>
        <mxCell id="IdJCSnWXdfJc_-B1oaeK-30" value="Super&lt;div&gt;Heated&lt;/div&gt;&lt;div&gt;Water&lt;/div&gt;" style="rounded=0;whiteSpace=wrap;html=1;" parent="1" vertex="1">
          <mxGeometry x="730" y="610" width="60" height="60" as="geometry" />
        </mxCell>
        <mxCell id="IdJCSnWXdfJc_-B1oaeK-37" style="edgeStyle=orthogonalEdgeStyle;rounded=0;orthogonalLoop=1;jettySize=auto;html=1;exitX=1;exitY=0.75;exitDx=0;exitDy=0;entryX=0.5;entryY=0;entryDx=0;entryDy=0;" parent="1" source="IdJCSnWXdfJc_-B1oaeK-31" target="IdJCSnWXdfJc_-B1oaeK-33" edge="1">
          <mxGeometry relative="1" as="geometry">
            <Array as="points">
              <mxPoint x="1000" y="575" />
            </Array>
          </mxGeometry>
        </mxCell>
        <mxCell id="IdJCSnWXdfJc_-B1oaeK-38" style="edgeStyle=orthogonalEdgeStyle;rounded=0;orthogonalLoop=1;jettySize=auto;html=1;exitX=0;exitY=0.75;exitDx=0;exitDy=0;entryX=0.5;entryY=0;entryDx=0;entryDy=0;" parent="1" source="IdJCSnWXdfJc_-B1oaeK-31" target="IdJCSnWXdfJc_-B1oaeK-35" edge="1">
          <mxGeometry relative="1" as="geometry">
            <Array as="points">
              <mxPoint x="920" y="575" />
            </Array>
          </mxGeometry>
        </mxCell>
        <mxCell id="IdJCSnWXdfJc_-B1oaeK-31" value="Steam" style="rounded=0;whiteSpace=wrap;html=1;" parent="1" vertex="1">
          <mxGeometry x="930" y="530" width="60" height="60" as="geometry" />
        </mxCell>
        <mxCell id="IdJCSnWXdfJc_-B1oaeK-33" value="Neon" style="rounded=0;whiteSpace=wrap;html=1;" parent="1" vertex="1">
          <mxGeometry x="970" y="610" width="60" height="60" as="geometry" />
        </mxCell>
        <mxCell id="IdJCSnWXdfJc_-B1oaeK-35" value="Super&lt;div&gt;Heated&lt;/div&gt;&lt;div&gt;Steam&lt;/div&gt;" style="rounded=0;whiteSpace=wrap;html=1;" parent="1" vertex="1">
          <mxGeometry x="890" y="610" width="60" height="60" as="geometry" />
        </mxCell>
        <mxCell id="IdJCSnWXdfJc_-B1oaeK-46" value="" style="edgeStyle=orthogonalEdgeStyle;rounded=0;orthogonalLoop=1;jettySize=auto;html=1;" parent="1" source="IdJCSnWXdfJc_-B1oaeK-44" target="IdJCSnWXdfJc_-B1oaeK-30" edge="1">
          <mxGeometry relative="1" as="geometry" />
        </mxCell>
        <mxCell id="IdJCSnWXdfJc_-B1oaeK-44" value="Pressure&lt;div&gt;Water&lt;/div&gt;" style="rounded=0;whiteSpace=wrap;html=1;" parent="1" vertex="1">
          <mxGeometry x="730" y="530" width="60" height="60" as="geometry" />
        </mxCell>
        <mxCell id="IdJCSnWXdfJc_-B1oaeK-49" value="" style="edgeStyle=orthogonalEdgeStyle;rounded=0;orthogonalLoop=1;jettySize=auto;html=1;" parent="1" source="IdJCSnWXdfJc_-B1oaeK-47" target="IdJCSnWXdfJc_-B1oaeK-28" edge="1">
          <mxGeometry relative="1" as="geometry" />
        </mxCell>
        <mxCell id="IdJCSnWXdfJc_-B1oaeK-47" value="Super&lt;br&gt;Conductor" style="rounded=0;whiteSpace=wrap;html=1;" parent="1" vertex="1">
          <mxGeometry x="410" y="610" width="60" height="60" as="geometry" />
        </mxCell>
        <mxCell id="Yucun-UtoKD5Qsi15tID-7" value="" style="edgeStyle=orthogonalEdgeStyle;rounded=0;orthogonalLoop=1;jettySize=auto;html=1;" parent="1" source="IdJCSnWXdfJc_-B1oaeK-52" target="Yucun-UtoKD5Qsi15tID-3" edge="1">
          <mxGeometry relative="1" as="geometry" />
        </mxCell>
        <mxCell id="IdJCSnWXdfJc_-B1oaeK-52" value="Nickel" style="rounded=0;whiteSpace=wrap;html=1;" parent="1" vertex="1">
          <mxGeometry x="450" y="450" width="60" height="60" as="geometry" />
        </mxCell>
        <mxCell id="IdJCSnWXdfJc_-B1oaeK-53" value="Sniper&lt;div&gt;T1&lt;/div&gt;" style="rounded=0;whiteSpace=wrap;html=1;" parent="1" vertex="1">
          <mxGeometry x="650" y="210" width="60" height="60" as="geometry" />
        </mxCell>
        <mxCell id="IdJCSnWXdfJc_-B1oaeK-65" style="edgeStyle=orthogonalEdgeStyle;rounded=0;orthogonalLoop=1;jettySize=auto;html=1;entryX=0.5;entryY=1;entryDx=0;entryDy=0;" parent="1" source="IdJCSnWXdfJc_-B1oaeK-54" target="IdJCSnWXdfJc_-B1oaeK-59" edge="1">
          <mxGeometry relative="1" as="geometry" />
        </mxCell>
        <mxCell id="IdJCSnWXdfJc_-B1oaeK-54" value="Sniper&lt;div&gt;T2&lt;/div&gt;" style="rounded=0;whiteSpace=wrap;html=1;" parent="1" vertex="1">
          <mxGeometry x="1082" y="560" width="60" height="60" as="geometry" />
        </mxCell>
        <mxCell id="IdJCSnWXdfJc_-B1oaeK-67" style="edgeStyle=orthogonalEdgeStyle;rounded=0;orthogonalLoop=1;jettySize=auto;html=1;entryX=0.5;entryY=1;entryDx=0;entryDy=0;" parent="1" source="IdJCSnWXdfJc_-B1oaeK-59" target="IdJCSnWXdfJc_-B1oaeK-60" edge="1">
          <mxGeometry relative="1" as="geometry" />
        </mxCell>
        <mxCell id="IdJCSnWXdfJc_-B1oaeK-59" value="Sniper&lt;div&gt;T3&lt;/div&gt;" style="rounded=0;whiteSpace=wrap;html=1;" parent="1" vertex="1">
          <mxGeometry x="1082" y="480" width="60" height="60" as="geometry" />
        </mxCell>
        <mxCell id="IdJCSnWXdfJc_-B1oaeK-68" style="edgeStyle=orthogonalEdgeStyle;rounded=0;orthogonalLoop=1;jettySize=auto;html=1;entryX=0.5;entryY=1;entryDx=0;entryDy=0;" parent="1" source="IdJCSnWXdfJc_-B1oaeK-60" target="IdJCSnWXdfJc_-B1oaeK-61" edge="1">
          <mxGeometry relative="1" as="geometry" />
        </mxCell>
        <mxCell id="IdJCSnWXdfJc_-B1oaeK-60" value="Sniper&lt;div&gt;T4&lt;/div&gt;" style="rounded=0;whiteSpace=wrap;html=1;" parent="1" vertex="1">
          <mxGeometry x="1082" y="400" width="60" height="60" as="geometry" />
        </mxCell>
        <mxCell id="IdJCSnWXdfJc_-B1oaeK-61" value="Sniper&lt;div&gt;T5&lt;/div&gt;" style="rounded=0;whiteSpace=wrap;html=1;" parent="1" vertex="1">
          <mxGeometry x="1082" y="320" width="60" height="60" as="geometry" />
        </mxCell>
        <mxCell id="IdJCSnWXdfJc_-B1oaeK-69" value="Snail&lt;div&gt;T1&lt;/div&gt;" style="rounded=0;whiteSpace=wrap;html=1;" parent="1" vertex="1">
          <mxGeometry x="730" y="210" width="60" height="60" as="geometry" />
        </mxCell>
        <mxCell id="IdJCSnWXdfJc_-B1oaeK-70" value="" style="rounded=0;whiteSpace=wrap;html=1;" parent="1" vertex="1">
          <mxGeometry x="1120" y="230" width="60" height="60" as="geometry" />
        </mxCell>
        <mxCell id="IdJCSnWXdfJc_-B1oaeK-71" value="Ship&lt;div&gt;T1&lt;/div&gt;" style="rounded=0;whiteSpace=wrap;html=1;" parent="1" vertex="1">
          <mxGeometry x="970" y="210" width="60" height="60" as="geometry" />
        </mxCell>
        <mxCell id="IdJCSnWXdfJc_-B1oaeK-72" value="Hover&lt;div&gt;T1&lt;/div&gt;" style="rounded=0;whiteSpace=wrap;html=1;" parent="1" vertex="1">
          <mxGeometry x="890" y="210" width="60" height="60" as="geometry" />
        </mxCell>
        <mxCell id="IdJCSnWXdfJc_-B1oaeK-73" value="Flying&lt;div&gt;T1&lt;/div&gt;" style="rounded=0;whiteSpace=wrap;html=1;" parent="1" vertex="1">
          <mxGeometry x="810" y="210" width="60" height="60" as="geometry" />
        </mxCell>
        <mxCell id="IdJCSnWXdfJc_-B1oaeK-74" value="" style="rounded=0;whiteSpace=wrap;html=1;" parent="1" vertex="1">
          <mxGeometry x="1200" y="280" width="60" height="60" as="geometry" />
        </mxCell>
        <mxCell id="IdJCSnWXdfJc_-B1oaeK-83" value="" style="edgeStyle=orthogonalEdgeStyle;rounded=0;orthogonalLoop=1;jettySize=auto;html=1;" parent="1" source="IdJCSnWXdfJc_-B1oaeK-75" target="IdJCSnWXdfJc_-B1oaeK-82" edge="1">
          <mxGeometry relative="1" as="geometry" />
        </mxCell>
        <mxCell id="IdJCSnWXdfJc_-B1oaeK-75" value="Liquid&lt;div&gt;Waste&lt;/div&gt;" style="rounded=0;whiteSpace=wrap;html=1;" parent="1" vertex="1">
          <mxGeometry x="810" y="530" width="60" height="60" as="geometry" />
        </mxCell>
        <mxCell id="Yucun-UtoKD5Qsi15tID-5" value="" style="edgeStyle=orthogonalEdgeStyle;rounded=0;orthogonalLoop=1;jettySize=auto;html=1;" parent="1" source="IdJCSnWXdfJc_-B1oaeK-82" target="Yucun-UtoKD5Qsi15tID-4" edge="1">
          <mxGeometry relative="1" as="geometry" />
        </mxCell>
        <mxCell id="IdJCSnWXdfJc_-B1oaeK-82" value="&lt;font style=&quot;font-size: 11px;&quot;&gt;Radioactive&lt;/font&gt;&lt;div style=&quot;font-size: 11px;&quot;&gt;&lt;font style=&quot;font-size: 11px;&quot;&gt;Water&lt;/font&gt;&lt;/div&gt;" style="rounded=0;whiteSpace=wrap;html=1;" parent="1" vertex="1">
          <mxGeometry x="810" y="610" width="60" height="60" as="geometry" />
        </mxCell>
        <mxCell id="Yucun-UtoKD5Qsi15tID-1" value="" style="rounded=0;whiteSpace=wrap;html=1;" parent="1" vertex="1">
          <mxGeometry x="-120" y="270" width="60" height="60" as="geometry" />
        </mxCell>
        <mxCell id="Yucun-UtoKD5Qsi15tID-2" value="Superalloy" style="rounded=0;whiteSpace=wrap;html=1;direction=south;" parent="1" vertex="1">
          <mxGeometry x="330" y="610" width="60" height="60" as="geometry" />
        </mxCell>
        <mxCell id="Yucun-UtoKD5Qsi15tID-9" style="edgeStyle=orthogonalEdgeStyle;rounded=0;orthogonalLoop=1;jettySize=auto;html=1;exitX=0;exitY=0.25;exitDx=0;exitDy=0;entryX=0;entryY=0.5;entryDx=0;entryDy=0;" parent="1" source="Yucun-UtoKD5Qsi15tID-3" target="Yucun-UtoKD5Qsi15tID-2" edge="1">
          <mxGeometry relative="1" as="geometry" />
        </mxCell>
        <mxCell id="z1yuDFzPrRRWrIJaIIHn-24" style="edgeStyle=orthogonalEdgeStyle;rounded=0;orthogonalLoop=1;jettySize=auto;html=1;exitX=0;exitY=0.75;exitDx=0;exitDy=0;entryX=0.5;entryY=0;entryDx=0;entryDy=0;" parent="1" source="Yucun-UtoKD5Qsi15tID-3" target="IdJCSnWXdfJc_-B1oaeK-47" edge="1">
          <mxGeometry relative="1" as="geometry" />
        </mxCell>
        <mxCell id="z1yuDFzPrRRWrIJaIIHn-25" style="edgeStyle=orthogonalEdgeStyle;rounded=0;orthogonalLoop=1;jettySize=auto;html=1;exitX=1;exitY=0.75;exitDx=0;exitDy=0;entryX=0.5;entryY=0;entryDx=0;entryDy=0;" parent="1" source="Yucun-UtoKD5Qsi15tID-3" target="IdJCSnWXdfJc_-B1oaeK-25" edge="1">
          <mxGeometry relative="1" as="geometry" />
        </mxCell>
        <mxCell id="Yucun-UtoKD5Qsi15tID-3" value="Niobium" style="rounded=0;whiteSpace=wrap;html=1;" parent="1" vertex="1">
          <mxGeometry x="450" y="530" width="60" height="60" as="geometry" />
        </mxCell>
        <mxCell id="Yucun-UtoKD5Qsi15tID-4" value="&lt;span style=&quot;font-size: 11px;&quot;&gt;Radioactive&lt;/span&gt;&lt;div&gt;&lt;span style=&quot;font-size: 11px;&quot;&gt;Waste&lt;/span&gt;&lt;/div&gt;" style="rounded=0;whiteSpace=wrap;html=1;" parent="1" vertex="1">
          <mxGeometry x="810" y="690" width="60" height="60" as="geometry" />
        </mxCell>
        <mxCell id="z1yuDFzPrRRWrIJaIIHn-1" value="Nuclear&lt;br&gt;Reactor" style="rounded=0;whiteSpace=wrap;html=1;" parent="1" vertex="1">
          <mxGeometry x="50" y="530" width="60" height="60" as="geometry" />
        </mxCell>
        <mxCell id="z1yuDFzPrRRWrIJaIIHn-2" value="Chemical&lt;div&gt;Burner&lt;/div&gt;" style="rounded=0;whiteSpace=wrap;html=1;" parent="1" vertex="1">
          <mxGeometry x="50" y="450" width="60" height="60" as="geometry" />
        </mxCell>
        <mxCell id="z1yuDFzPrRRWrIJaIIHn-33" style="edgeStyle=orthogonalEdgeStyle;rounded=0;orthogonalLoop=1;jettySize=auto;html=1;exitX=0;exitY=0.75;exitDx=0;exitDy=0;entryX=0.5;entryY=0;entryDx=0;entryDy=0;" parent="1" source="z1yuDFzPrRRWrIJaIIHn-3" target="z1yuDFzPrRRWrIJaIIHn-2" edge="1">
          <mxGeometry relative="1" as="geometry" />
        </mxCell>
        <mxCell id="z1yuDFzPrRRWrIJaIIHn-34" style="edgeStyle=orthogonalEdgeStyle;rounded=0;orthogonalLoop=1;jettySize=auto;html=1;exitX=1;exitY=0.75;exitDx=0;exitDy=0;entryX=0.5;entryY=0;entryDx=0;entryDy=0;" parent="1" source="z1yuDFzPrRRWrIJaIIHn-3" target="z1yuDFzPrRRWrIJaIIHn-22" edge="1">
          <mxGeometry relative="1" as="geometry" />
        </mxCell>
        <mxCell id="z1yuDFzPrRRWrIJaIIHn-3" value="Organic&lt;div&gt;Burner&lt;/div&gt;" style="rounded=0;whiteSpace=wrap;html=1;" parent="1" vertex="1">
          <mxGeometry x="90" y="370" width="60" height="60" as="geometry" />
        </mxCell>
        <mxCell id="z1yuDFzPrRRWrIJaIIHn-6" value="Antimatter&lt;div&gt;Collider&lt;/div&gt;" style="rounded=0;whiteSpace=wrap;html=1;" parent="1" vertex="1">
          <mxGeometry x="50" y="610" width="60" height="60" as="geometry" />
        </mxCell>
        <mxCell id="z1yuDFzPrRRWrIJaIIHn-7" value="" style="rounded=0;whiteSpace=wrap;html=1;" parent="1" vertex="1">
          <mxGeometry x="-10" y="260" width="60" height="60" as="geometry" />
        </mxCell>
        <mxCell id="z1yuDFzPrRRWrIJaIIHn-8" value="" style="rounded=0;whiteSpace=wrap;html=1;" parent="1" vertex="1">
          <mxGeometry x="-150" y="350" width="60" height="60" as="geometry" />
        </mxCell>
        <mxCell id="z1yuDFzPrRRWrIJaIIHn-9" value="" style="rounded=0;whiteSpace=wrap;html=1;" parent="1" vertex="1">
          <mxGeometry x="80" y="230" width="60" height="60" as="geometry" />
        </mxCell>
        <mxCell id="z1yuDFzPrRRWrIJaIIHn-10" value="Nuclear&lt;br&gt;Reactor" style="rounded=0;whiteSpace=wrap;html=1;" parent="1" vertex="1">
          <mxGeometry x="-590" y="330" width="60" height="60" as="geometry" />
        </mxCell>
        <mxCell id="z1yuDFzPrRRWrIJaIIHn-11" value="Steam&lt;div&gt;Generator&lt;/div&gt;" style="rounded=0;whiteSpace=wrap;html=1;" parent="1" vertex="1">
          <mxGeometry x="-360" y="230" width="60" height="60" as="geometry" />
        </mxCell>
        <mxCell id="z1yuDFzPrRRWrIJaIIHn-12" value="Steam&lt;div&gt;Turbine&lt;/div&gt;" style="rounded=0;whiteSpace=wrap;html=1;" parent="1" vertex="1">
          <mxGeometry x="-330" y="370" width="60" height="60" as="geometry" />
        </mxCell>
        <mxCell id="z1yuDFzPrRRWrIJaIIHn-13" value="" style="rounded=0;whiteSpace=wrap;html=1;" parent="1" vertex="1">
          <mxGeometry x="-240" y="220" width="60" height="60" as="geometry" />
        </mxCell>
        <mxCell id="z1yuDFzPrRRWrIJaIIHn-36" value="" style="edgeStyle=orthogonalEdgeStyle;rounded=0;orthogonalLoop=1;jettySize=auto;html=1;" parent="1" source="z1yuDFzPrRRWrIJaIIHn-22" target="z1yuDFzPrRRWrIJaIIHn-35" edge="1">
          <mxGeometry relative="1" as="geometry" />
        </mxCell>
        <mxCell id="z1yuDFzPrRRWrIJaIIHn-22" value="Small Steam Turbine" style="rounded=0;whiteSpace=wrap;html=1;" parent="1" vertex="1">
          <mxGeometry x="130" y="450" width="60" height="60" as="geometry" />
        </mxCell>
        <mxCell id="z1yuDFzPrRRWrIJaIIHn-38" value="" style="edgeStyle=orthogonalEdgeStyle;rounded=0;orthogonalLoop=1;jettySize=auto;html=1;" parent="1" source="z1yuDFzPrRRWrIJaIIHn-35" target="z1yuDFzPrRRWrIJaIIHn-37" edge="1">
          <mxGeometry relative="1" as="geometry" />
        </mxCell>
        <mxCell id="z1yuDFzPrRRWrIJaIIHn-35" value="Medium&lt;div&gt;Steam&lt;/div&gt;&lt;div&gt;Turbine&lt;/div&gt;" style="rounded=0;whiteSpace=wrap;html=1;" parent="1" vertex="1">
          <mxGeometry x="130" y="530" width="60" height="60" as="geometry" />
        </mxCell>
        <mxCell id="z1yuDFzPrRRWrIJaIIHn-37" value="Large&lt;div&gt;Steam&lt;/div&gt;&lt;div&gt;Turbine&lt;/div&gt;" style="rounded=0;whiteSpace=wrap;html=1;" parent="1" vertex="1">
          <mxGeometry x="130" y="610" width="60" height="60" as="geometry" />
        </mxCell>
        <mxCell id="z1yuDFzPrRRWrIJaIIHn-39" value="&lt;h1 style=&quot;margin-top: 0px;&quot;&gt;Nuclear Reactor&lt;/h1&gt;&lt;div&gt;eats a lot of neptunium, its decay heats up pressurized water to superheated water.&lt;/div&gt;&lt;div&gt;superheated water is feeded into steam generator, which is supplied which must be supplied with pressurized water too.&lt;/div&gt;&lt;div&gt;steam generator then outputs superheated steam.&lt;/div&gt;&lt;div&gt;it enters steam turbine and generates power.&lt;/div&gt;&lt;div&gt;then&amp;nbsp;&lt;/div&gt;" style="text;html=1;whiteSpace=wrap;overflow=hidden;rounded=0;" parent="1" vertex="1">
          <mxGeometry x="-540" y="480" width="340" height="200" as="geometry" />
        </mxCell>
        <mxCell id="qVasqlrIXP2Je2hJIZ-i-2" value="" style="swimlane;startSize=0;" parent="1" vertex="1">
          <mxGeometry x="-400" y="850" width="200" height="200" as="geometry" />
        </mxCell>
        <mxCell id="qVasqlrIXP2Je2hJIZ-i-5" value="" style="rounded=0;whiteSpace=wrap;html=1;" parent="qVasqlrIXP2Je2hJIZ-i-2" vertex="1">
          <mxGeometry x="30" y="20" width="120" height="60" as="geometry" />
        </mxCell>
        <mxCell id="MXxVrp63OWO_Skx7xh7r-1" value="Vanadium" style="rounded=0;whiteSpace=wrap;html=1;" parent="1" vertex="1">
          <mxGeometry x="-710" y="-70" width="60" height="60" as="geometry" />
        </mxCell>
        <mxCell id="MXxVrp63OWO_Skx7xh7r-2" value="Carbon&lt;div&gt;Powder&lt;/div&gt;" style="rounded=0;whiteSpace=wrap;html=1;" parent="1" vertex="1">
          <mxGeometry x="-710" y="10" width="60" height="60" as="geometry" />
        </mxCell>
        <mxCell id="MXxVrp63OWO_Skx7xh7r-3" value="Vanadium&lt;div&gt;Carbide&lt;/div&gt;" style="rounded=0;whiteSpace=wrap;html=1;" parent="1" vertex="1">
          <mxGeometry x="-710" y="-150" width="60" height="60" as="geometry" />
        </mxCell>
        <mxCell id="MXxVrp63OWO_Skx7xh7r-4" value="Carbon&lt;div&gt;Powder&lt;/div&gt;" style="rounded=0;whiteSpace=wrap;html=1;" parent="1" vertex="1">
          <mxGeometry x="-630" y="-150" width="60" height="60" as="geometry" />
        </mxCell>
        <mxCell id="MXxVrp63OWO_Skx7xh7r-5" value="Phosphor" style="rounded=0;whiteSpace=wrap;html=1;" parent="1" vertex="1">
          <mxGeometry x="-630" y="-70" width="60" height="60" as="geometry" />
        </mxCell>
        <mxCell id="MXxVrp63OWO_Skx7xh7r-6" value="Nickel" style="rounded=0;whiteSpace=wrap;html=1;" parent="1" vertex="1">
          <mxGeometry x="-630" y="10" width="60" height="60" as="geometry" />
        </mxCell>
        <mxCell id="MXxVrp63OWO_Skx7xh7r-7" value="Moss" style="rounded=0;whiteSpace=wrap;html=1;" parent="1" vertex="1">
          <mxGeometry x="-550" y="-150" width="60" height="60" as="geometry" />
        </mxCell>
        <mxCell id="MXxVrp63OWO_Skx7xh7r-8" value="Niobium" style="rounded=0;whiteSpace=wrap;html=1;" parent="1" vertex="1">
          <mxGeometry x="-550" y="-70" width="60" height="60" as="geometry" />
        </mxCell>
        <mxCell id="MXxVrp63OWO_Skx7xh7r-9" value="Neptunium" style="rounded=0;whiteSpace=wrap;html=1;" parent="1" vertex="1">
          <mxGeometry x="-550" y="10" width="60" height="60" as="geometry" />
        </mxCell>
        <mxCell id="MXxVrp63OWO_Skx7xh7r-10" value="Quartz" style="rounded=0;whiteSpace=wrap;html=1;" parent="1" vertex="1">
          <mxGeometry x="-470" y="-150" width="60" height="60" as="geometry" />
        </mxCell>
        <mxCell id="MXxVrp63OWO_Skx7xh7r-11" value="Reso&lt;div&gt;Crystal&lt;/div&gt;" style="rounded=0;whiteSpace=wrap;html=1;" parent="1" vertex="1">
          <mxGeometry x="-470" y="-70" width="60" height="60" as="geometry" />
        </mxCell>
        <mxCell id="MXxVrp63OWO_Skx7xh7r-12" value="Antimatter" style="rounded=0;whiteSpace=wrap;html=1;" parent="1" vertex="1">
          <mxGeometry x="-470" y="10" width="60" height="60" as="geometry" />
        </mxCell>
        <mxCell id="MXxVrp63OWO_Skx7xh7r-13" value="Steam" style="rounded=0;whiteSpace=wrap;html=1;" parent="1" vertex="1">
          <mxGeometry x="-710" y="90" width="60" height="60" as="geometry" />
        </mxCell>
        <mxCell id="MXxVrp63OWO_Skx7xh7r-14" value="Phosphoric&lt;div style=&quot;font-size: 11px;&quot;&gt;Acid&lt;/div&gt;" style="rounded=0;whiteSpace=wrap;html=1;fontSize=11;" parent="1" vertex="1">
          <mxGeometry x="-630" y="90" width="60" height="60" as="geometry" />
        </mxCell>
        <mxCell id="MXxVrp63OWO_Skx7xh7r-15" value="Neon" style="rounded=0;whiteSpace=wrap;html=1;" parent="1" vertex="1">
          <mxGeometry x="-550" y="90" width="60" height="60" as="geometry" />
        </mxCell>
        <mxCell id="MXxVrp63OWO_Skx7xh7r-16" value="Slag" style="rounded=0;whiteSpace=wrap;html=1;" parent="1" vertex="1">
          <mxGeometry x="-470" y="90" width="60" height="60" as="geometry" />
        </mxCell>
        <mxCell id="MXxVrp63OWO_Skx7xh7r-58" style="edgeStyle=orthogonalEdgeStyle;rounded=0;orthogonalLoop=1;jettySize=auto;html=1;exitX=0;exitY=0.25;exitDx=0;exitDy=0;entryX=0.5;entryY=1;entryDx=0;entryDy=0;" parent="1" source="MXxVrp63OWO_Skx7xh7r-17" target="MXxVrp63OWO_Skx7xh7r-22" edge="1">
          <mxGeometry relative="1" as="geometry" />
        </mxCell>
        <mxCell id="MXxVrp63OWO_Skx7xh7r-63" style="edgeStyle=orthogonalEdgeStyle;rounded=0;orthogonalLoop=1;jettySize=auto;html=1;exitX=1;exitY=0.25;exitDx=0;exitDy=0;entryX=0.5;entryY=1;entryDx=0;entryDy=0;" parent="1" source="MXxVrp63OWO_Skx7xh7r-17" target="MXxVrp63OWO_Skx7xh7r-19" edge="1">
          <mxGeometry relative="1" as="geometry" />
        </mxCell>
        <mxCell id="MXxVrp63OWO_Skx7xh7r-17" value="Vanadium" style="rounded=0;whiteSpace=wrap;html=1;" parent="1" vertex="1">
          <mxGeometry x="-30" y="-430" width="60" height="60" as="geometry" />
        </mxCell>
        <mxCell id="MXxVrp63OWO_Skx7xh7r-48" style="edgeStyle=orthogonalEdgeStyle;rounded=0;orthogonalLoop=1;jettySize=auto;html=1;exitX=0.5;exitY=0;exitDx=0;exitDy=0;entryX=0.5;entryY=1;entryDx=0;entryDy=0;" parent="1" source="MXxVrp63OWO_Skx7xh7r-18" target="MXxVrp63OWO_Skx7xh7r-47" edge="1">
          <mxGeometry relative="1" as="geometry" />
        </mxCell>
        <mxCell id="MXxVrp63OWO_Skx7xh7r-18" value="Carbon&lt;div&gt;Powder&lt;/div&gt;" style="rounded=0;whiteSpace=wrap;html=1;" parent="1" vertex="1">
          <mxGeometry x="-230" y="-510" width="60" height="60" as="geometry" />
        </mxCell>
        <mxCell id="MXxVrp63OWO_Skx7xh7r-64" value="" style="edgeStyle=orthogonalEdgeStyle;rounded=0;orthogonalLoop=1;jettySize=auto;html=1;" parent="1" source="MXxVrp63OWO_Skx7xh7r-19" target="MXxVrp63OWO_Skx7xh7r-62" edge="1">
          <mxGeometry relative="1" as="geometry" />
        </mxCell>
        <mxCell id="MXxVrp63OWO_Skx7xh7r-19" value="Vanadium&lt;div&gt;Carbide&lt;/div&gt;" style="rounded=0;whiteSpace=wrap;html=1;" parent="1" vertex="1">
          <mxGeometry x="10" y="-510" width="60" height="60" as="geometry" />
        </mxCell>
        <mxCell id="MXxVrp63OWO_Skx7xh7r-60" style="edgeStyle=orthogonalEdgeStyle;rounded=0;orthogonalLoop=1;jettySize=auto;html=1;exitX=1;exitY=0.25;exitDx=0;exitDy=0;entryX=0.5;entryY=1;entryDx=0;entryDy=0;" parent="1" source="MXxVrp63OWO_Skx7xh7r-22" target="MXxVrp63OWO_Skx7xh7r-25" edge="1">
          <mxGeometry relative="1" as="geometry" />
        </mxCell>
        <mxCell id="MXxVrp63OWO_Skx7xh7r-66" style="edgeStyle=orthogonalEdgeStyle;rounded=0;orthogonalLoop=1;jettySize=auto;html=1;exitX=0;exitY=0.25;exitDx=0;exitDy=0;entryX=0.5;entryY=1;entryDx=0;entryDy=0;" parent="1" source="MXxVrp63OWO_Skx7xh7r-22" target="MXxVrp63OWO_Skx7xh7r-32" edge="1">
          <mxGeometry relative="1" as="geometry" />
        </mxCell>
        <mxCell id="MXxVrp63OWO_Skx7xh7r-22" value="Nickel" style="rounded=0;whiteSpace=wrap;html=1;" parent="1" vertex="1">
          <mxGeometry x="-110" y="-510" width="60" height="60" as="geometry" />
        </mxCell>
        <mxCell id="MXxVrp63OWO_Skx7xh7r-24" value="Niobium" style="rounded=0;whiteSpace=wrap;html=1;" parent="1" vertex="1">
          <mxGeometry x="130" y="-590" width="60" height="60" as="geometry" />
        </mxCell>
        <mxCell id="MXxVrp63OWO_Skx7xh7r-61" value="" style="edgeStyle=orthogonalEdgeStyle;rounded=0;orthogonalLoop=1;jettySize=auto;html=1;" parent="1" source="MXxVrp63OWO_Skx7xh7r-25" target="MXxVrp63OWO_Skx7xh7r-28" edge="1">
          <mxGeometry relative="1" as="geometry" />
        </mxCell>
        <mxCell id="MXxVrp63OWO_Skx7xh7r-25" value="Neptunium" style="rounded=0;whiteSpace=wrap;html=1;" parent="1" vertex="1">
          <mxGeometry x="-70" y="-590" width="60" height="60" as="geometry" />
        </mxCell>
        <mxCell id="MXxVrp63OWO_Skx7xh7r-56" value="" style="edgeStyle=orthogonalEdgeStyle;rounded=0;orthogonalLoop=1;jettySize=auto;html=1;" parent="1" source="MXxVrp63OWO_Skx7xh7r-26" target="MXxVrp63OWO_Skx7xh7r-27" edge="1">
          <mxGeometry relative="1" as="geometry" />
        </mxCell>
        <mxCell id="MXxVrp63OWO_Skx7xh7r-26" value="Quartz" style="rounded=0;whiteSpace=wrap;html=1;" parent="1" vertex="1">
          <mxGeometry x="130" y="-430" width="60" height="60" as="geometry" />
        </mxCell>
        <mxCell id="MXxVrp63OWO_Skx7xh7r-65" value="" style="edgeStyle=orthogonalEdgeStyle;rounded=0;orthogonalLoop=1;jettySize=auto;html=1;" parent="1" source="MXxVrp63OWO_Skx7xh7r-27" target="MXxVrp63OWO_Skx7xh7r-24" edge="1">
          <mxGeometry relative="1" as="geometry" />
        </mxCell>
        <mxCell id="MXxVrp63OWO_Skx7xh7r-27" value="Reso&lt;div&gt;Crystal&lt;/div&gt;" style="rounded=0;whiteSpace=wrap;html=1;" parent="1" vertex="1">
          <mxGeometry x="130" y="-510" width="60" height="60" as="geometry" />
        </mxCell>
        <mxCell id="MXxVrp63OWO_Skx7xh7r-28" value="Antimatter" style="rounded=0;whiteSpace=wrap;html=1;" parent="1" vertex="1">
          <mxGeometry x="-70" y="-670" width="60" height="60" as="geometry" />
        </mxCell>
        <mxCell id="MXxVrp63OWO_Skx7xh7r-50" value="" style="edgeStyle=orthogonalEdgeStyle;rounded=0;orthogonalLoop=1;jettySize=auto;html=1;" parent="1" source="MXxVrp63OWO_Skx7xh7r-29" target="MXxVrp63OWO_Skx7xh7r-49" edge="1">
          <mxGeometry relative="1" as="geometry" />
        </mxCell>
        <mxCell id="MXxVrp63OWO_Skx7xh7r-29" value="Steam" style="rounded=0;whiteSpace=wrap;html=1;" parent="1" vertex="1">
          <mxGeometry x="-310" y="-590" width="60" height="60" as="geometry" />
        </mxCell>
        <mxCell id="MXxVrp63OWO_Skx7xh7r-30" value="Phosphoric&lt;div style=&quot;font-size: 11px;&quot;&gt;Acid&lt;/div&gt;" style="rounded=0;whiteSpace=wrap;html=1;fontSize=11;" parent="1" vertex="1">
          <mxGeometry x="-230" y="-670" width="60" height="60" as="geometry" />
        </mxCell>
        <mxCell id="MXxVrp63OWO_Skx7xh7r-32" value="Slag" style="rounded=0;whiteSpace=wrap;html=1;" parent="1" vertex="1">
          <mxGeometry x="-150" y="-590" width="60" height="60" as="geometry" />
        </mxCell>
        <mxCell id="MXxVrp63OWO_Skx7xh7r-40" style="edgeStyle=orthogonalEdgeStyle;rounded=0;orthogonalLoop=1;jettySize=auto;html=1;exitX=0;exitY=0.25;exitDx=0;exitDy=0;entryX=0.5;entryY=1;entryDx=0;entryDy=0;" parent="1" source="MXxVrp63OWO_Skx7xh7r-33" target="MXxVrp63OWO_Skx7xh7r-39" edge="1">
          <mxGeometry relative="1" as="geometry" />
        </mxCell>
        <mxCell id="MXxVrp63OWO_Skx7xh7r-53" style="edgeStyle=orthogonalEdgeStyle;rounded=0;orthogonalLoop=1;jettySize=auto;html=1;exitX=1;exitY=0.25;exitDx=0;exitDy=0;entryX=0.5;entryY=1;entryDx=0;entryDy=0;" parent="1" source="MXxVrp63OWO_Skx7xh7r-33" target="MXxVrp63OWO_Skx7xh7r-26" edge="1">
          <mxGeometry relative="1" as="geometry" />
        </mxCell>
        <mxCell id="MXxVrp63OWO_Skx7xh7r-54" value="" style="edgeStyle=orthogonalEdgeStyle;rounded=0;orthogonalLoop=1;jettySize=auto;html=1;" parent="1" source="MXxVrp63OWO_Skx7xh7r-33" target="MXxVrp63OWO_Skx7xh7r-17" edge="1">
          <mxGeometry relative="1" as="geometry" />
        </mxCell>
        <mxCell id="MXxVrp63OWO_Skx7xh7r-33" value="Starter" style="rounded=0;whiteSpace=wrap;html=1;" parent="1" vertex="1">
          <mxGeometry x="-30" y="-350" width="60" height="60" as="geometry" />
        </mxCell>
        <mxCell id="MXxVrp63OWO_Skx7xh7r-44" style="edgeStyle=orthogonalEdgeStyle;rounded=0;orthogonalLoop=1;jettySize=auto;html=1;exitX=0;exitY=0.25;exitDx=0;exitDy=0;entryX=0.5;entryY=1;entryDx=0;entryDy=0;" parent="1" source="MXxVrp63OWO_Skx7xh7r-39" target="MXxVrp63OWO_Skx7xh7r-43" edge="1">
          <mxGeometry relative="1" as="geometry" />
        </mxCell>
        <mxCell id="MXxVrp63OWO_Skx7xh7r-45" style="edgeStyle=orthogonalEdgeStyle;rounded=0;orthogonalLoop=1;jettySize=auto;html=1;exitX=1;exitY=0.25;exitDx=0;exitDy=0;entryX=0.5;entryY=1;entryDx=0;entryDy=0;" parent="1" source="MXxVrp63OWO_Skx7xh7r-39" target="MXxVrp63OWO_Skx7xh7r-18" edge="1">
          <mxGeometry relative="1" as="geometry" />
        </mxCell>
        <mxCell id="MXxVrp63OWO_Skx7xh7r-39" value="Azure&lt;div&gt;Moss&lt;/div&gt;" style="rounded=0;whiteSpace=wrap;html=1;" parent="1" vertex="1">
          <mxGeometry x="-270" y="-430" width="60" height="60" as="geometry" />
        </mxCell>
        <mxCell id="MXxVrp63OWO_Skx7xh7r-46" value="" style="edgeStyle=orthogonalEdgeStyle;rounded=0;orthogonalLoop=1;jettySize=auto;html=1;" parent="1" source="MXxVrp63OWO_Skx7xh7r-43" target="MXxVrp63OWO_Skx7xh7r-29" edge="1">
          <mxGeometry relative="1" as="geometry" />
        </mxCell>
        <mxCell id="MXxVrp63OWO_Skx7xh7r-43" value="Water" style="rounded=0;whiteSpace=wrap;html=1;" parent="1" vertex="1">
          <mxGeometry x="-310" y="-510" width="60" height="60" as="geometry" />
        </mxCell>
        <mxCell id="MXxVrp63OWO_Skx7xh7r-51" value="" style="edgeStyle=orthogonalEdgeStyle;rounded=0;orthogonalLoop=1;jettySize=auto;html=1;" parent="1" source="MXxVrp63OWO_Skx7xh7r-47" target="MXxVrp63OWO_Skx7xh7r-30" edge="1">
          <mxGeometry relative="1" as="geometry" />
        </mxCell>
        <mxCell id="MXxVrp63OWO_Skx7xh7r-47" value="Phosphor" style="rounded=0;whiteSpace=wrap;html=1;" parent="1" vertex="1">
          <mxGeometry x="-230" y="-590" width="60" height="60" as="geometry" />
        </mxCell>
        <mxCell id="MXxVrp63OWO_Skx7xh7r-76" value="" style="edgeStyle=orthogonalEdgeStyle;rounded=0;orthogonalLoop=1;jettySize=auto;html=1;" parent="1" source="MXxVrp63OWO_Skx7xh7r-49" target="MXxVrp63OWO_Skx7xh7r-73" edge="1">
          <mxGeometry relative="1" as="geometry" />
        </mxCell>
        <mxCell id="MXxVrp63OWO_Skx7xh7r-49" value="Neon" style="rounded=0;whiteSpace=wrap;html=1;" parent="1" vertex="1">
          <mxGeometry x="-310" y="-670" width="60" height="60" as="geometry" />
        </mxCell>
        <mxCell id="MXxVrp63OWO_Skx7xh7r-62" value="Nickel&lt;div&gt;Superalloy&lt;/div&gt;" style="rounded=0;whiteSpace=wrap;html=1;" parent="1" vertex="1">
          <mxGeometry x="10" y="-590" width="60" height="60" as="geometry" />
        </mxCell>
        <mxCell id="MXxVrp63OWO_Skx7xh7r-68" value="" style="shape=image;verticalLabelPosition=bottom;labelBackgroundColor=default;verticalAlign=top;aspect=fixed;imageAspect=0;image=data:image/png,iVBORw0KGgoAAAANSUhEUgAAACAAAAAgCAYAAABzenr0AAAAAXNSR0IArs4c6QAAAO5JREFUWIXtlTsSwjAMRGXuAg0cgNy/gANAA4cRVTJG0d8CZoAtE9n7vEosgL8+rBZdgIiobthaaE93sWWcBTGLosZREPXlqLkHQnxRZW5BbLiHp8ut1FwTCwAAcL7e1YWNyDKSEl0tpKc/7rcr46iJtlZMYFafBN0AO1lwEqAJQCGkzXqQiJ4AtI8vesOlALyq/EVTAJX6LYDUb/hqmRdRr+mwW+qrxnM6Afe8N67qEABNRx2zzhnBFljTsG/FqFItqBzX4km8Jlwa81pPUmpBxUktCLUFlb2W5DLIJjHcgixIJLl0xBzMO1r2fXoAA3p6AuvvZekAAAAASUVORK5CYII=;" parent="1" vertex="1">
          <mxGeometry x="-272" y="-550" width="32" height="32" as="geometry" />
        </mxCell>
        <mxCell id="MXxVrp63OWO_Skx7xh7r-69" value="" style="shape=image;verticalLabelPosition=bottom;labelBackgroundColor=default;verticalAlign=top;aspect=fixed;imageAspect=0;image=data:image/png,iVBORw0KGgoAAAANSUhEUgAAACAAAAAgCAYAAABzenr0AAAAAXNSR0IArs4c6QAAARJJREFUWIXtVjsOwjAMbREShZErdGfiMqy9Ru+StZdh6kEYWzaYIuVjO/4EkCreVDVx3suzE6dp/vgxWmnAcxhe/vvQ9/mC4yhakz05JA4BiZAIKU7CiDGkgkpCyEEpuUYEOqAll4rYQT8f15uJXAJQlRdwuhzRwM65KBZyjONC5kC4+2VeQeKUHBLERRYE2e+doHbtx1InSi7sOSqXec3SkRJpizZKAVV8WotFAriwHlGzgJrYtgDVPfApcgyRgPN9Qis9PCGaE4H1AtY9AKFzruW8EcTtuNSIUpewm8/0IJGKsEBVhDXbNavoKEBu+FiOU+SEGjstiSBTUDPXGFgEWifMKdAKkTinthgS842UbQ9vYFl3s1WsjekAAAAASUVORK5CYII=;" parent="1" vertex="1">
          <mxGeometry x="-270" y="-630" width="32" height="32" as="geometry" />
        </mxCell>
        <mxCell id="MXxVrp63OWO_Skx7xh7r-70" value="" style="shape=image;verticalLabelPosition=bottom;labelBackgroundColor=default;verticalAlign=top;aspect=fixed;imageAspect=0;image=data:image/png,iVBORw0KGgoAAAANSUhEUgAAACAAAAAgCAYAAABzenr0AAAAAXNSR0IArs4c6QAAAcBJREFUWIXNlTFLw0AUx/8Rd6mDQ7FdhFBwU+jqIBi6t34B0QydHNtV0E/gUMXJoVCyi4UKjgaaQSmUgosNHToU/ARxMWli3t29Sy3tHzLc5e693/vnXg5YsQxqMgiC+cCzUXmwo4mns1Z6z0FLnsQg0/AAKnUvoNakQCQQSwEgQQQQMoANWfAX9wP3jR3xbiDxebKIDN57ewcAmPlcNHd+M+U5QbiQ2YG42E54NjekGMDM5xLVc5UFgu3AsqQFoPoMgL4LS3FApzM2qclOzwUAnB6XAQDB42XsbYNP4tnKv6TUgU7PTSSvPp8kKiuZhdQTKnTB930pAOlAqNqkTSYOk1MqmQUMR+NovDu9kgIIHahN2ig2nUTy7f1DabC/cJyzQAKElZeP7oTJ41UuIqEDlO1ZpHKB1YYi6//DBRJAp/pFIZQOcA7ecDROgOhASdtQV1ncWP/LaDborxZgUakKYAFkdYGzjwRwrG7q3teBmA360XoqVlxaXRAGFbVmFqeEAI7VNUQ/JG4iVfWA5AwUmw7c1wtlAJG4e0kHbr/38HVd/R2JnRDJsboGrKp6oQgghKhvfc4DQn1HcCxfO/0ANyS1xj23xqQAAAAASUVORK5CYII=;" parent="1" vertex="1">
          <mxGeometry x="-270" y="-470" width="32" height="32" as="geometry" />
        </mxCell>
        <mxCell id="MXxVrp63OWO_Skx7xh7r-71" value="" style="shape=image;verticalLabelPosition=bottom;labelBackgroundColor=default;verticalAlign=top;aspect=fixed;imageAspect=0;image=data:image/png,iVBORw0KGgoAAAANSUhEUgAAACAAAAAgCAYAAABzenr0AAAAAXNSR0IArs4c6QAAAVZJREFUWIXtVsENwyAMpFUXgBHICMzA1JkhIyQjwAjpi8gxZzBN+6iUk/po5PiOs2NszI0bP0KMcY8x7r24x6/I6f95nkUetYAQwpF0WRbxPenUkojnKHmLRGP5sAAtWQhhTymN8rdLQElKcuec4c84aEzBcAm47c65KjEiGkWzBBpLNSJSStWBVAI+EcEF0feRiBdKyAO5CHRq9EwjvnJAsmo0sRYnAd77Pedsyu+qCE1/HCXw3lcnzzkba+2wiFZPcHSbsOcEQssdPsCO4YAc0KDlEAV3ogwm1V3QgtYhyZXLAq6KOM1nXgZqL2qmdV27pKhEzjlcgm3bDkE9cmOMmaapKwC5Q52ANxQaRq3PSXKCC6TEZampRrE0CTXjmEKyPqV02qiqJvzGJCzkKIavc/AyomJ6BGg/pC5SEcg12AOaoWStbS6nqJQoXkzQE0G/mBt/jTeUZby+eFl+VQAAAABJRU5ErkJggg==;" parent="1" vertex="1">
          <mxGeometry x="-190" y="-470" width="32" height="32" as="geometry" />
        </mxCell>
        <mxCell id="MXxVrp63OWO_Skx7xh7r-73" value="Cryogenic&lt;div&gt;Neon&lt;/div&gt;" style="rounded=0;whiteSpace=wrap;html=1;" parent="1" vertex="1">
          <mxGeometry x="-310" y="-750" width="60" height="60" as="geometry" />
        </mxCell>
        <mxCell id="MXxVrp63OWO_Skx7xh7r-79" value="" style="shape=image;verticalLabelPosition=bottom;labelBackgroundColor=default;verticalAlign=top;aspect=fixed;imageAspect=0;image=data:image/png,iVBORw0KGgoAAAANSUhEUgAAACAAAAAgCAYAAABzenr0AAAAAXNSR0IArs4c6QAAAdlJREFUWIXFljFPAjEUx98RFxOd6pGwEJ0Ik5MTzM4sOvkBNC4YNwcGBjajkhD9AE6wMDPL5MR0ygIxThw3QXKTh4Ppeb17bV/hgH9C0vZ6/f/63ms5gC3LwgY9zwvbQdCBz+uvBe8XWvnEO5nMmdKEMSZ9ltERRs15Pz4WBB2SGaYdo9kIGI+Ic3XPoSzGmBBFlbQpiC1OUrndsKJrrJQCAIDi8y0KmoakAIwx4bdxgKjezu+MUpAKALWIMLnuy2oAPOQcotxuGNdA9GiqJF0Yq2LP88gnotDKW7Z9qZ2HRmDgTuE7+PeZ9GsAAPDz8UTxBoC/e4JSO2gEBu40bOeGzbDdq84Wh0e7YX+vWEy8O3ecxJgqhUoAbt6rzsKdcADMfBkINAXH9gHkhk3IluqouU4quLiU1f16cqM0p0ZBlQLpPRA1X6dIN6Es9FiuUwEw2T0FQnUctRGgFN7ccQQQDEoGsfQHiQzEVIkIbKr4pABxjUd+KkayoyikYB27H498uHh/0N8DKvNlo0B5j3QPmEKMR74wX7U5MgC2sMlzGYRFmZSWsFqQFsc6YIwAuCb9mvCXTNHp474FIH5HyE4COtjtdgEAoFKphJ9j8QVVxnFlS3Ud8/b0C+xf3gz5N0R6AAAAAElFTkSuQmCC;" parent="1" vertex="1">
          <mxGeometry x="-270" y="-710" width="32" height="32" as="geometry" />
        </mxCell>
        <mxCell id="MXxVrp63OWO_Skx7xh7r-81" value="" style="shape=image;verticalLabelPosition=bottom;labelBackgroundColor=default;verticalAlign=top;aspect=fixed;imageAspect=0;image=data:image/png,iVBORw0KGgoAAAANSUhEUgAAACAAAAAgCAYAAABzenr0AAAAAXNSR0IArs4c6QAAAWxJREFUWIXtl62OAjEQxweSewP0GQSWEBIEb3FmPch19yDnVoJfw1sgSC4Ei8CgeQMEp7ppp/PVbQFz4/ox+//tzLQ7C/BmG6Rsvuz3D388Xi6T/LMAsHgpCJMzJ14CQnVsm4YUn0+nRSBEJ068JATrIIX993QiIT4nk2Dfx2ikApEbtJyXhIgW77cbK349n4tDBAvuzfEDngnRTeKwWyF8AN++qiqaoyCGFhFsEpyzXdtGc1R6O4Bmu02CAODfPgWiC8n3ev0AAKhXK/GhnLgfciwspSNKARUJTRxfSFiQioQzsgYkCE4cp8sKwRYhBaHlvA8EC4AhNPG+EMG5dIWo2WI2C8a4BgDio4qFq7qOi/BnszF9zQ7HYzCmoqNFwlmUgldDmMSk1FjSgc3vG8QidCZFBUciRdwMUAqC6pjMALkQXLuWBNAXQuoVe7fT1jtDO1VZPxUahOVIZ/9acRDW+yQbgIKwiv8bAMAf5+nH8/GsbSsAAAAASUVORK5CYII=;" parent="1" vertex="1">
          <mxGeometry x="-190" y="-550" width="32" height="32" as="geometry" />
        </mxCell>
        <mxCell id="MXxVrp63OWO_Skx7xh7r-82" value="" style="shape=image;verticalLabelPosition=bottom;labelBackgroundColor=default;verticalAlign=top;aspect=fixed;imageAspect=0;image=data:image/png,iVBORw0KGgoAAAANSUhEUgAAACAAAAAgCAYAAABzenr0AAAAAXNSR0IArs4c6QAAAZ1JREFUWIXNlrFuwjAQhn9XfQEYOiBgqcQDMHTr1IEXgL5C565InZDYOnboVokBqaIPwEAXpjJkaN8AIgYGpD5BOoQktnK+nG0q+LdccnffnX2OgRNLUcYkSYqH6AEANAPh033lkygyDQDggvU88BDPpi2F9JIEwCYTxBOCBfhc/SC+erL3rwDxFhl88fUNAOg0armtuRtVJUpjEfshdA8AgLwTjktBAnQaNaN6BzlDhGzCo8gJQLAMgGMX/qsD4skgK3p++wAA3N/dpNEmj/m7Vq8uDZ5PBTcFl1yE98UKg+1UN5nJu7dlp2ipf6viOGYp2SXQkpePXyo5YW/uRn4Ag+0U7eEsSw4AaPXqbDAConK5SICs8vW4b09etDpI3BIEnfHSOKIxtLb+CF2wAcirD4So7IBo40VLE8QBij0HnOXRjfP/GW3m+9MChKqqABGAbxckfjaA0u/LBWIz3+vfs3cIpynIgtpG06dTHICC5UBySFR5g2L3QHs4k1zBgnxJgJffawDAetwHBFUQUgdfPwAdIgsoBJF+dz76A5SXed4Sbl3oAAAAAElFTkSuQmCC;" parent="1" vertex="1">
          <mxGeometry x="-110" y="-550" width="32" height="32" as="geometry" />
        </mxCell>
        <mxCell id="MXxVrp63OWO_Skx7xh7r-83" value="" style="shape=image;verticalLabelPosition=bottom;labelBackgroundColor=default;verticalAlign=top;aspect=fixed;imageAspect=0;image=data:image/png,iVBORw0KGgoAAAANSUhEUgAAACAAAAAgCAYAAABzenr0AAAAAXNSR0IArs4c6QAAAWZJREFUWIXtlc1NAzEQhSeugQ5y4MSKDhCkAk50kEMUKbUgRRzSAScqAEQHUThxSAfpYXMayX6ev3V2ucCT9rC2x+/TzNgm+uuaRRZttvteGn9e34biLwJ4WL72REQ33bU4fymEGczmrCkg1EBO+/fhR5xHmFYIF2AIBCoClbwFlpEGxtKadzDAlBBqirrFqr9/XIYNT8ev4h9jtXKYGfh821nTpjBWy4RbgnwjL90tEGJausWqWng1vyv+rROAxlY5qgxI5ijv+KGhlYmUD262e7HxWuRBFABYGw8i2gu4jxSnNuHYENxDGJd4kD8NAs95C4QUl3DzqSByfeye6lPwWxC5eQEgQeRffg+MlYkKQNuc1QphwSUiosP7S5EWC8Jbh2ZeZgpjvAXx+tVMpXWasAeqt8CC4ODIWxExFwE0AyzTUAjJXAVAAzQfCqGZmwBRea+nBj8agAXhmY8GIEFEzP9FRHQGlHDoF0KJY7kAAAAASUVORK5CYII=;" parent="1" vertex="1">
          <mxGeometry x="-32" y="-550" width="32" height="32" as="geometry" />
        </mxCell>
        <mxCell id="MXxVrp63OWO_Skx7xh7r-84" value="" style="shape=image;verticalLabelPosition=bottom;labelBackgroundColor=default;verticalAlign=top;aspect=fixed;imageAspect=0;image=data:image/png,iVBORw0KGgoAAAANSUhEUgAAACAAAAAgCAYAAABzenr0AAAAAXNSR0IArs4c6QAAAcpJREFUWIXtlj9KA0EUhz+NjZVbBEQUWQ0BQSsbSbcEvIEH8AAi2lhKsLRRxAN4AG8gSLpgk0qrkBgSJQgp1souWshuJtn583aTVPqrhp2Z9/32zcybgb+uOcmgq5u772mDT48P5wDmXQOPTi6+m63OtPmxFlzwqP182a5MAto58+P56g8ZM6DC2w/NSdhGuNHArOC6LCYMqPCv+0HVFrxULFdKxXIiqBSeMJAWbuuXwEHZhGngALXGozGoFD5iQNXiwXwQtX0KUdMaSFWz1aGwuS46Oc46kFXSYxtnoNttAJB/KlTVAR9LrwHA8ufGyHeT+nvNACA/zJzMQBqtLm4GAOtrPgC1xmM1SxzIsAQRHKDz1gagVCwHurFTNxCGYfDSq/PSq8ffJjVhNOAKqDOhiVFxFSutAenfSEyAvWZk2oTjJrZXdlODrQZMu9rzvGoYhoGu7/2rpZ3jUupT4HleApQVDhmXQGdi5gaiiuhSbji+Mt7n7yero3UJpFCJVPjt9Xn8GDZmQIVL7wGAPr93gTpHvV1VOBgyIIGXiuVAUi9scK0BKRzcl5ALDpYlsKVdcvtJ4FoDua0BMFzLSWWDwwxfRBL4vwB+ALWxy13ABGvtAAAAAElFTkSuQmCC;" parent="1" vertex="1">
          <mxGeometry x="-30" y="-630" width="32" height="32" as="geometry" />
        </mxCell>
        <mxCell id="MXxVrp63OWO_Skx7xh7r-85" value="" style="shape=image;verticalLabelPosition=bottom;labelBackgroundColor=default;verticalAlign=top;aspect=fixed;imageAspect=0;image=data:image/png,iVBORw0KGgoAAAANSUhEUgAAACAAAAAgCAYAAABzenr0AAAAAXNSR0IArs4c6QAAAeFJREFUWIXtlr1KA0EUhY8hTyDYCKIEJJAt0ouFkCKggmCZNDZBLCzWMiDpbFOK2AXSpLNMYbcvsMUGghBiY+krjEWY9c7snb/dgI0XApndmbnfnpwzG+C/POs7nYptzpO1E7rpbrtvXOM7LwiAeyJuc995QQA2Oenmk1FPNKIjAECrGQVB1Ew3ktlQLJaZceHjzZmQzel1fY3LEyxAMhvmi3wg9AqBKADQ5j4QpvKFUAAmo55YZWuvDfXi1vlA5AD0tzRBuMoFwRmyDgD9TiTmSYruaVvZTDq7KkSrGRnTUKeDMhAfn19OKFsUCyacJ6kyXmXr/FPGjIA5LYCmAIWgSlAYQD1suucnhcOHqzgeCE6JGgBM37PCDV0JCkGVCFGGS4HSuN+JlAmNgz3npseH+5u5Fq/YjmfFA5wSvmWLru08YD0AoOCBy+sLZTwevwLYpECqYEvNYpnlStw/POXXjS8j3QP6U8TxIP9Oo8gpIVOkN7cCbAuCftebOwGqQOjNTaliTaenAQDubq+Use5s6QngNxmm5tTsrAJcGp5f3pSxTQnf5oDjLxmnhC0dugqu5k6AEAjOYK7mXgA+ECaDuZp7A9ggqjQPAjBBhDasBOCCKPMuKfXy4SCqvMj+tH4A7skuuP9aZZQAAAAASUVORK5CYII=;" parent="1" vertex="1">
          <mxGeometry x="50" y="-550" width="32" height="32" as="geometry" />
        </mxCell>
        <mxCell id="MXxVrp63OWO_Skx7xh7r-86" value="" style="shape=image;verticalLabelPosition=bottom;labelBackgroundColor=default;verticalAlign=top;aspect=fixed;imageAspect=0;image=data:image/png,iVBORw0KGgoAAAANSUhEUgAAACAAAAAgCAYAAABzenr0AAAAAXNSR0IArs4c6QAAAYhJREFUWIXtljFuwjAUhv+gzrDRoUs3UGi5AHPHqhNSkXoGTkAv0YkjIDExI7HlAJAWpWLp0qFscAE6vWA77/kZCFKl8kuREtvJ9/k5hgCX/PdE2oDHl9cdnT88PRf6+92W+oyjBUz4uSTEGzm4TyIknCgrIMFvmnF+HjfaB8GXnwsAwHDQs5jWRfO+s6vW6ri+vfPC3WgyBKeYEhUTTuc/X+/BcA7g64sbbbyNP3JW5MKrtToAWFXQBELjVqrfbUUVYWzpkZbp6pwA39JQSqmANLuQnRIk8J0txXapLzSigLsTXJB5PZ2MVJC0HN4KcBLSrDmJ6WRkjeUkxG1ohvthOjTcVh4OemHb0K2E2U6HFuldKVQA4KsA2JXgoG6laAxXwdV8hixNIlbAJ6GFYK6gKbGazwBgL1C2BJftZl1oy9Jk/w5kaVL4a+Zu2m7W+XEKnFKA+irBPUirkgSnCbMfJJyEFldEKrnbJn6SnSIRCvcKHCvBRYKrAiHRJH3wUgR8Ehr8kj+RX6+ruukSN8NTAAAAAElFTkSuQmCC;" parent="1" vertex="1">
          <mxGeometry x="50" y="-470" width="32" height="32" as="geometry" />
        </mxCell>
        <mxCell id="MXxVrp63OWO_Skx7xh7r-87" value="" style="shape=image;verticalLabelPosition=bottom;labelBackgroundColor=default;verticalAlign=top;aspect=fixed;imageAspect=0;image=data:image/png,iVBORw0KGgoAAAANSUhEUgAAACAAAAAgCAYAAABzenr0AAAAAXNSR0IArs4c6QAAAY5JREFUWIXllz9KQ0EQxr/kEiJikSLGYGdnE0NADyB2ljZiQNscwVYhYmNpJx5AIUQbOzuJMYWFiHgKrTa8t/NnZ9+uIDjVvmV2v9/Ozgz7gP9uNavj2fPbNzd/tNYw71EZQBLPARFcGBJPhVAXWcVTIMQFu8PLoHin20uGYJ0t4rkgiGOMeA6IklP/5pYVb7dXydx4dFf6XlhcJj7Dne0gRN0NNo4H4sknkxcy1+1tlb6/Pt+Jj3SgotV88fVNGk5nvxEJApADgrPr/j4LwQIAwN7BYXDTHBB1zhEAri7OowD8nOCMqzAxAs5SIxEq0flAg7DmhHQNGsT8Ch5PT8RMfbofiQCuRLUceBjL60s5UBWCC7t/agmCJGEshN+AisIWCLYKrBC+ONeEQhBqr9YSc2mlKYq3Wk3fnQi7niD2AUCPxMfrjBUHgOl05ruzlQAY34RVS1SKRLEjmh8OsRCcOEDfCVHPJyuEVTwawAIRI14JIATBmZbMlX8orBCaeBKABSIkngygQVjE/4T9AAIlsm2LhEEsAAAAAElFTkSuQmCC;" parent="1" vertex="1">
          <mxGeometry x="170" y="-550" width="32" height="32" as="geometry" />
        </mxCell>
        <mxCell id="MXxVrp63OWO_Skx7xh7r-88" value="" style="shape=image;verticalLabelPosition=bottom;labelBackgroundColor=default;verticalAlign=top;aspect=fixed;imageAspect=0;image=data:image/png,iVBORw0KGgoAAAANSUhEUgAAACAAAAAgCAYAAABzenr0AAAAAXNSR0IArs4c6QAAAbVJREFUWIXNljFywjAQRb/TkYYmmaGh9zF0BJrcwRU5RArqUPkONPS5QI7AETyTFLhIoFMaVpFXK2lleybZShiN3uNrFwD+uKq5D7RNY93hbZs9f1YBH66VmE3gyxgLAPd1HUISErMIEJyqROJubjgAfB6PwT7peoCJCUjw79PJrR82mxDIkhgtkINrJUYJaOEaiWKBj9VKvMsx9dh1VVKAf6lsAQsA9WIR7H1aLqPnvJ/PwbO36xV7oIpOAY/ZlzldLsH+Q98XwalEAYLze31tGrfWSOTgogD/5HymtRIaOMCakMNTM/3ctm4t9cTaDnuVw/c3tksgBQfKk9DAgdtiymi9dJ1b+0lQAim4E9gClscojRW/V+lO6Zy1tVk44F0BjzHX0f7h0nVo4AOBlIQGnuqJGDwQSElI8J0xg2b1JTRwwHuTvmapcg21M8atSYJGlUY0Bwe8BPhmnkQODvyOKiXBP5RUgaGUhDTnlBCfFr9fSLqoB3JJ8Od+j0jwXIk/RjHjmNyh7wciWnhUQILR65JekfbzGv2fUNMrmimY9K841eUa+GSBmIQWPosAlyiB/4v6ASPdJQbJi4TeAAAAAElFTkSuQmCC;" parent="1" vertex="1">
          <mxGeometry x="170" y="-470" width="32" height="32" as="geometry" />
        </mxCell>
        <mxCell id="MXxVrp63OWO_Skx7xh7r-89" value="" style="shape=image;verticalLabelPosition=bottom;labelBackgroundColor=default;verticalAlign=top;aspect=fixed;imageAspect=0;image=data:image/png,iVBORw0KGgoAAAANSUhEUgAAACAAAAAgCAYAAABzenr0AAAAAXNSR0IArs4c6QAAAc5JREFUWIXll79KA0EQxieSNgdpFFRsbBQLTaFpRBHEB/ARBDvBwtrK2kJIF0gveQMbEWxiimghSZPmyAVME7izP6vV3bn5c3tnl6/bvWG/X2ZmhyzAoqtCbc7jJMV79aBGxpbVEt64u3/ImHNQ/6FqHnMAgK84gdFkmm6tr6qZkGBxJn8zoJkbjSZTMRO+mcqUQDLXIIqUSQSgzDmIoj1S5T70h2NnvbG27KxXghrM4yStB7UKZS7B2yIzgM0BAMJo5pgblTFnATiF0cwxp+Rj7g2wv71Zypy6wmwP+JpTZQP46x1ufpAZ6L2+ZA6Rfl2r3WG/hdGMNWcBbAi7+ykIyRwA4Ky5J05OsQdwJjBEWXMH4PbmmgzuPnZJCK7mtp567+pwcjKQF8KeCZq0CZkpAQdRxNzcHAmC7AEOQjLH/YKvLQfBNiGGoMybh8ckBDczKAivSUgJQ3wnMRvbH44zjZkbgLqSGGJntwEAAM9vA9LcyIbwyoAEcXV54axtCOrKGggRgGpGCsLU/OSg4ey32h11XqgZ0CBwwxmIz48BC+wFIEFw3X5+elTBsZy8HhvSP2cjG1aKN3Her508h2rxdlyh55Z2qBSvjfrF0w+6GAEurOtO9gAAAABJRU5ErkJggg==;" parent="1" vertex="1">
          <mxGeometry x="170" y="-390" width="32" height="32" as="geometry" />
        </mxCell>
        <mxCell id="MXxVrp63OWO_Skx7xh7r-90" value="" style="shape=image;verticalLabelPosition=bottom;labelBackgroundColor=default;verticalAlign=top;aspect=fixed;imageAspect=0;image=data:image/png,iVBORw0KGgoAAAANSUhEUgAAACAAAAAgCAYAAABzenr0AAAAAXNSR0IArs4c6QAAAZVJREFUWIXtlT1Ow0AQhR8oF7BkpXJnoXTpLbpUKK3FEXIFOio6rsAREC2iSofo0yGUzlWE5COYapzxZv5sGiTyJEu2dz3v2/HsLHDWf9eFN+H64a2j+/f7G3U+n5fK+k4dyKu6y4oSADBfrsxglrkHIb7Mq7oDAAkgDRgxtyBOXpA5yYKYohRiZpkDQNvskRUlDrutCULjXBHoS2/CYr0ZBEqNDrutaO6NkWbW4GK96e/ny1UfTAraNnsxBmVPy4abAa7f1IGWiQHA98fLoEA+X59CENrq0zEJ4iQDUYi22feXJ2uOWQNR8VrhkuBTmZ2QP2dF2aefB9bMOQT1kq/nR78RaRAUBDim1DMHjv9dMgdG7gJuzoE8aebAyBpIi8na3zTOJZ2sagbSGkjN6VnaWrwD0uq1Q0vMgHQmWNKaDE+9lq1QDWj/O9IDAODq9q4jiEkAUyBo9XlVd2k35CAhAF75/PIgNFD+a8KNiACswFrD4bHSVh9uRFGI1MCTO3nMjhhrHgKIQkwxDwN4EFPNz/oT+gGGY+QR/STVIgAAAABJRU5ErkJggg==;" parent="1" vertex="1">
          <mxGeometry x="-232" y="-390" width="32" height="32" as="geometry" />
        </mxCell>
        <mxCell id="MXxVrp63OWO_Skx7xh7r-91" value="" style="shape=image;verticalLabelPosition=bottom;labelBackgroundColor=default;verticalAlign=top;aspect=fixed;imageAspect=0;image=data:image/png,iVBORw0KGgoAAAANSUhEUgAAACAAAAAgCAYAAABzenr0AAAAAXNSR0IArs4c6QAAAWdJREFUWIXtljFqw0AQRcchpzDEXcCtO4ObNLlCDpEqR/ARUqXJBYwKX0BNmoA6tQJ3MvgaSbVhWf0/+3dtQyD51Uramf80I+2u2V/X7FqJ37YvX2H8vH2lPlcBiM1zEBcHQOYehAyglNQzZ7ESgFJSxRzFZgGUkpaYp7EugJe4H0Y7HE/29Lim8f0wmpnZarmgEDe15kFN22XnxONUEOBhs5bMGQSawyAmAMEcvZn3Jk3bWT+M7hz07BaZx0lDj73EJUrz/ACwsjdtZ/d38yqz+OOTW5AKma+WC/plI3N0LQEw85zYHHSfAtSYH46nHNskBwRQzdEipEK87/YzClAiBMEWp6B4LzgboBQi3cRkgNw6oECgbRwCsD6eA8HOELQCtRBI8pkQrYZsFUR/Ber7x2fnbvmThwpEqE5c8hpzM9ACFBS3Ix57/VXMzZwTkXcmYEYhRjV3ARSIEqMqAA/iEub/+hX6Bgb1x5U7N7x8AAAAAElFTkSuQmCC;" parent="1" vertex="1">
          <mxGeometry x="-70" y="-470" width="32" height="32" as="geometry" />
        </mxCell>
        <mxCell id="MXxVrp63OWO_Skx7xh7r-103" style="edgeStyle=orthogonalEdgeStyle;rounded=0;orthogonalLoop=1;jettySize=auto;html=1;entryX=0;entryY=0.5;entryDx=0;entryDy=0;" parent="1" source="MXxVrp63OWO_Skx7xh7r-95" target="MXxVrp63OWO_Skx7xh7r-97" edge="1">
          <mxGeometry relative="1" as="geometry" />
        </mxCell>
        <mxCell id="MXxVrp63OWO_Skx7xh7r-95" value="Crimson&lt;div&gt;Rock&lt;/div&gt;" style="rounded=0;whiteSpace=wrap;html=1;" parent="1" vertex="1">
          <mxGeometry x="450" y="-350" width="60" height="60" as="geometry" />
        </mxCell>
        <mxCell id="MXxVrp63OWO_Skx7xh7r-96" value="" style="shape=image;verticalLabelPosition=bottom;labelBackgroundColor=default;verticalAlign=top;aspect=fixed;imageAspect=0;image=data:image/png,iVBORw0KGgoAAAANSUhEUgAAACAAAAAgCAYAAABzenr0AAAAAXNSR0IArs4c6QAAAWJJREFUWIXtlK9uw0AMxr2ppKBSQdFAwEhB2WhHC8f2DnuEPcveYWxwNKVlpQUFRQciFYREylAi1/7su1sbbSCfFCm5P/HvPvtMNOqPdZez+Gu9bvn3y3abtR/pPnXh+3LZyjEJNCgAEVEZghq7FiILYAiI5BzKFDwvFslBvFpJcuBjtVInRE5Y8hyKOsCDH5pGzUsnTlVFREQP87lai5xwHZAnf5xMfFoAwoWcMAGQ7UNAwBR0BRcLJm0uQ4B7vHS4KUA55+In7IoS7UFOdIr6eWga14lTVamgaI8FoRzYFEW7q2v1Qw/QGo85SCQc2BSFKjx5zXLuPwe0XEwvaQYkIayuyNdZqYx2wjKE/kEBvZbM57Id2NU1PU2nCiYlJRLw17fAguBFKucR6Of5fDH/Opv179EUyBsR++YQlt72+74Bqk6IbsIt9X08XsSErfhWEDIYkrngWoiU4KNGjfoX+gGOubR+LNyIcQAAAABJRU5ErkJggg==;" parent="1" vertex="1">
          <mxGeometry x="490" y="-310" width="32" height="32" as="geometry" />
        </mxCell>
        <mxCell id="MXxVrp63OWO_Skx7xh7r-109" style="edgeStyle=orthogonalEdgeStyle;rounded=0;orthogonalLoop=1;jettySize=auto;html=1;exitX=1;exitY=0.25;exitDx=0;exitDy=0;entryX=0;entryY=0.5;entryDx=0;entryDy=0;" parent="1" source="MXxVrp63OWO_Skx7xh7r-97" target="MXxVrp63OWO_Skx7xh7r-107" edge="1">
          <mxGeometry relative="1" as="geometry" />
        </mxCell>
        <mxCell id="MXxVrp63OWO_Skx7xh7r-110" style="edgeStyle=orthogonalEdgeStyle;rounded=0;orthogonalLoop=1;jettySize=auto;html=1;exitX=1;exitY=0.75;exitDx=0;exitDy=0;entryX=0;entryY=0.5;entryDx=0;entryDy=0;" parent="1" source="MXxVrp63OWO_Skx7xh7r-97" target="MXxVrp63OWO_Skx7xh7r-108" edge="1">
          <mxGeometry relative="1" as="geometry" />
        </mxCell>
        <mxCell id="MXxVrp63OWO_Skx7xh7r-97" value="Blast Furnace" style="shape=process;whiteSpace=wrap;html=1;backgroundOutline=1;fillColor=#ffe6cc;strokeColor=#d79b00;" parent="1" vertex="1">
          <mxGeometry x="560" y="-350" width="120" height="60" as="geometry" />
        </mxCell>
        <mxCell id="MXxVrp63OWO_Skx7xh7r-102" style="edgeStyle=orthogonalEdgeStyle;rounded=0;orthogonalLoop=1;jettySize=auto;html=1;entryX=0;entryY=0.5;entryDx=0;entryDy=0;" parent="1" source="MXxVrp63OWO_Skx7xh7r-101" target="MXxVrp63OWO_Skx7xh7r-95" edge="1">
          <mxGeometry relative="1" as="geometry" />
        </mxCell>
        <mxCell id="MXxVrp63OWO_Skx7xh7r-101" value="Wall Grinder" style="shape=step;perimeter=stepPerimeter;whiteSpace=wrap;html=1;fixedSize=1;fillColor=#e1d5e7;strokeColor=#9673a6;" parent="1" vertex="1">
          <mxGeometry x="280" y="-360" width="120" height="80" as="geometry" />
        </mxCell>
        <mxCell id="MXxVrp63OWO_Skx7xh7r-106" value="" style="edgeStyle=orthogonalEdgeStyle;rounded=0;orthogonalLoop=1;jettySize=auto;html=1;" parent="1" source="MXxVrp63OWO_Skx7xh7r-105" target="MXxVrp63OWO_Skx7xh7r-97" edge="1">
          <mxGeometry relative="1" as="geometry" />
        </mxCell>
        <mxCell id="MXxVrp63OWO_Skx7xh7r-105" value="Carbon&lt;div&gt;Powder&lt;/div&gt;" style="rounded=0;whiteSpace=wrap;html=1;" parent="1" vertex="1">
          <mxGeometry x="590" y="-430" width="60" height="60" as="geometry" />
        </mxCell>
        <mxCell id="MXxVrp63OWO_Skx7xh7r-107" value="Phosphorus" style="rounded=0;whiteSpace=wrap;html=1;fontSize=11;" parent="1" vertex="1">
          <mxGeometry x="730" y="-390" width="60" height="60" as="geometry" />
        </mxCell>
        <mxCell id="MXxVrp63OWO_Skx7xh7r-108" value="Slag" style="rounded=0;whiteSpace=wrap;html=1;" parent="1" vertex="1">
          <mxGeometry x="730" y="-310" width="60" height="60" as="geometry" />
        </mxCell>
        <mxCell id="MXxVrp63OWO_Skx7xh7r-111" value="" style="shape=image;verticalLabelPosition=bottom;labelBackgroundColor=default;verticalAlign=top;aspect=fixed;imageAspect=0;image=data:image/png,iVBORw0KGgoAAAANSUhEUgAAACAAAAAgCAYAAABzenr0AAAAAXNSR0IArs4c6QAAAVZJREFUWIXtVsENwyAMpFUXgBHICMzA1JkhIyQjwAjpi8gxZzBN+6iUk/po5PiOs2NszI0bP0KMcY8x7r24x6/I6f95nkUetYAQwpF0WRbxPenUkojnKHmLRGP5sAAtWQhhTymN8rdLQElKcuec4c84aEzBcAm47c65KjEiGkWzBBpLNSJSStWBVAI+EcEF0feRiBdKyAO5CHRq9EwjvnJAsmo0sRYnAd77Pedsyu+qCE1/HCXw3lcnzzkba+2wiFZPcHSbsOcEQssdPsCO4YAc0KDlEAV3ogwm1V3QgtYhyZXLAq6KOM1nXgZqL2qmdV27pKhEzjlcgm3bDkE9cmOMmaapKwC5Q52ANxQaRq3PSXKCC6TEZampRrE0CTXjmEKyPqV02qiqJvzGJCzkKIavc/AyomJ6BGg/pC5SEcg12AOaoWStbS6nqJQoXkzQE0G/mBt/jTeUZby+eFl+VQAAAABJRU5ErkJggg==;" parent="1" vertex="1">
          <mxGeometry x="630" y="-390" width="32" height="32" as="geometry" />
        </mxCell>
        <mxCell id="MXxVrp63OWO_Skx7xh7r-113" value="" style="shape=image;verticalLabelPosition=bottom;labelBackgroundColor=default;verticalAlign=top;aspect=fixed;imageAspect=0;image=data:image/png,iVBORw0KGgoAAAANSUhEUgAAACAAAAAgCAYAAABzenr0AAAAAXNSR0IArs4c6QAAAZ1JREFUWIXNlrFuwjAQhn9XfQEYOiBgqcQDMHTr1IEXgL5C565InZDYOnboVokBqaIPwEAXpjJkaN8AIgYGpD5BOoQktnK+nG0q+LdccnffnX2OgRNLUcYkSYqH6AEANAPh033lkygyDQDggvU88BDPpi2F9JIEwCYTxBOCBfhc/SC+erL3rwDxFhl88fUNAOg0armtuRtVJUpjEfshdA8AgLwTjktBAnQaNaN6BzlDhGzCo8gJQLAMgGMX/qsD4skgK3p++wAA3N/dpNEmj/m7Vq8uDZ5PBTcFl1yE98UKg+1UN5nJu7dlp2ipf6viOGYp2SXQkpePXyo5YW/uRn4Ag+0U7eEsSw4AaPXqbDAConK5SICs8vW4b09etDpI3BIEnfHSOKIxtLb+CF2wAcirD4So7IBo40VLE8QBij0HnOXRjfP/GW3m+9MChKqqABGAbxckfjaA0u/LBWIz3+vfs3cIpynIgtpG06dTHICC5UBySFR5g2L3QHs4k1zBgnxJgJffawDAetwHBFUQUgdfPwAdIgsoBJF+dz76A5SXed4Sbl3oAAAAAElFTkSuQmCC;" parent="1" vertex="1">
          <mxGeometry x="770" y="-270" width="32" height="32" as="geometry" />
        </mxCell>
        <mxCell id="MXxVrp63OWO_Skx7xh7r-114" value="" style="shape=image;verticalLabelPosition=bottom;labelBackgroundColor=default;verticalAlign=top;aspect=fixed;imageAspect=0;image=data:image/png,iVBORw0KGgoAAAANSUhEUgAAACAAAAAgCAYAAABzenr0AAAAAXNSR0IArs4c6QAAAW5JREFUWIXtl79uwjAQxo8+A09A5wgJITHzEu2CIjF3QTwIYmFGQiztS2SuVCFFzPQJeIcwObLP98+x2y79Niexv1/uzs4F4I81Snn41jSdP35eLpPmZwFg81IQpsmceQkIdeL7fk+az6fTIhDiJM68JAQ7QQr7V9uSEJOqChcfj1Ug8gEt5yUhopvd/c6af1+vxSGCG+7N8QI/CdFfxGG3QvgAvl5Wq9iMgHiymGBJcE4f53N0jUpvD3A4HpMgAPi3T4HoQ7Kt6w4A4G29FhflzP2QY2MpHVEKqEho5vhAwoZUJJzIGpAgOHOcLisEW4QUhJbzIRAsAIbQzIdCBPvSFaKmxWwWjHENAMRbFRu/bjZxEe5OJ9PX7PNyCcZUdLRIOEUp+G0Ik5mUGks6sPy+QSxCJykqOBIp5maAUhBUx2QGyIXg2rUkgKEQUq84uJ22nhnarsr6qdAgLFs6+9eKg7CeJ9kAFITV/F8AAA9RM8gbttNH9gAAAABJRU5ErkJggg==;" parent="1" vertex="1">
          <mxGeometry x="770" y="-350" width="32" height="32" as="geometry" />
        </mxCell>
        <mxCell id="MXxVrp63OWO_Skx7xh7r-123" value="" style="edgeStyle=orthogonalEdgeStyle;rounded=0;orthogonalLoop=1;jettySize=auto;html=1;" parent="1" source="MXxVrp63OWO_Skx7xh7r-116" target="MXxVrp63OWO_Skx7xh7r-122" edge="1">
          <mxGeometry relative="1" as="geometry" />
        </mxCell>
        <mxCell id="MXxVrp63OWO_Skx7xh7r-116" value="Azure&lt;div&gt;Moss&lt;/div&gt;" style="rounded=0;whiteSpace=wrap;html=1;" parent="1" vertex="1">
          <mxGeometry x="450" y="-590" width="60" height="60" as="geometry" />
        </mxCell>
        <mxCell id="MXxVrp63OWO_Skx7xh7r-117" value="" style="shape=image;verticalLabelPosition=bottom;labelBackgroundColor=default;verticalAlign=top;aspect=fixed;imageAspect=0;image=data:image/png,iVBORw0KGgoAAAANSUhEUgAAACAAAAAgCAYAAABzenr0AAAAAXNSR0IArs4c6QAAAZVJREFUWIXtlT1Ow0AQhR8oF7BkpXJnoXTpLbpUKK3FEXIFOio6rsAREC2iSofo0yGUzlWE5COYapzxZv5sGiTyJEu2dz3v2/HsLHDWf9eFN+H64a2j+/f7G3U+n5fK+k4dyKu6y4oSADBfrsxglrkHIb7Mq7oDAAkgDRgxtyBOXpA5yYKYohRiZpkDQNvskRUlDrutCULjXBHoS2/CYr0ZBEqNDrutaO6NkWbW4GK96e/ny1UfTAraNnsxBmVPy4abAa7f1IGWiQHA98fLoEA+X59CENrq0zEJ4iQDUYi22feXJ2uOWQNR8VrhkuBTmZ2QP2dF2aefB9bMOQT1kq/nR78RaRAUBDim1DMHjv9dMgdG7gJuzoE8aebAyBpIi8na3zTOJZ2sagbSGkjN6VnaWrwD0uq1Q0vMgHQmWNKaDE+9lq1QDWj/O9IDAODq9q4jiEkAUyBo9XlVd2k35CAhAF75/PIgNFD+a8KNiACswFrD4bHSVh9uRFGI1MCTO3nMjhhrHgKIQkwxDwN4EFPNz/oT+gGGY+QR/STVIgAAAABJRU5ErkJggg==;" parent="1" vertex="1">
          <mxGeometry x="488" y="-550" width="32" height="32" as="geometry" />
        </mxCell>
        <mxCell id="MXxVrp63OWO_Skx7xh7r-121" style="edgeStyle=orthogonalEdgeStyle;rounded=0;orthogonalLoop=1;jettySize=auto;html=1;entryX=0;entryY=0.5;entryDx=0;entryDy=0;" parent="1" source="MXxVrp63OWO_Skx7xh7r-118" target="MXxVrp63OWO_Skx7xh7r-116" edge="1">
          <mxGeometry relative="1" as="geometry" />
        </mxCell>
        <mxCell id="MXxVrp63OWO_Skx7xh7r-118" value="Moss Slicer" style="shape=step;perimeter=stepPerimeter;whiteSpace=wrap;html=1;fixedSize=1;fillColor=#e1d5e7;strokeColor=#9673a6;" parent="1" vertex="1">
          <mxGeometry x="280" y="-600" width="120" height="80" as="geometry" />
        </mxCell>
        <mxCell id="MXxVrp63OWO_Skx7xh7r-127" style="edgeStyle=orthogonalEdgeStyle;rounded=0;orthogonalLoop=1;jettySize=auto;html=1;entryX=0;entryY=0.5;entryDx=0;entryDy=0;" parent="1" source="MXxVrp63OWO_Skx7xh7r-122" target="MXxVrp63OWO_Skx7xh7r-124" edge="1">
          <mxGeometry relative="1" as="geometry" />
        </mxCell>
        <mxCell id="MXxVrp63OWO_Skx7xh7r-122" value="Inert Gas Kiln" style="shape=process;whiteSpace=wrap;html=1;backgroundOutline=1;fillColor=#ffe6cc;strokeColor=#d79b00;" parent="1" vertex="1">
          <mxGeometry x="560" y="-590" width="120" height="60" as="geometry" />
        </mxCell>
        <mxCell id="MXxVrp63OWO_Skx7xh7r-124" value="Carbon&lt;div&gt;Powder&lt;/div&gt;" style="rounded=0;whiteSpace=wrap;html=1;" parent="1" vertex="1">
          <mxGeometry x="730" y="-590" width="60" height="60" as="geometry" />
        </mxCell>
        <mxCell id="MXxVrp63OWO_Skx7xh7r-125" value="" style="shape=image;verticalLabelPosition=bottom;labelBackgroundColor=default;verticalAlign=top;aspect=fixed;imageAspect=0;image=data:image/png,iVBORw0KGgoAAAANSUhEUgAAACAAAAAgCAYAAABzenr0AAAAAXNSR0IArs4c6QAAAVZJREFUWIXtVsENwyAMpFUXgBHICMzA1JkhIyQjwAjpi8gxZzBN+6iUk/po5PiOs2NszI0bP0KMcY8x7r24x6/I6f95nkUetYAQwpF0WRbxPenUkojnKHmLRGP5sAAtWQhhTymN8rdLQElKcuec4c84aEzBcAm47c65KjEiGkWzBBpLNSJSStWBVAI+EcEF0feRiBdKyAO5CHRq9EwjvnJAsmo0sRYnAd77Pedsyu+qCE1/HCXw3lcnzzkba+2wiFZPcHSbsOcEQssdPsCO4YAc0KDlEAV3ogwm1V3QgtYhyZXLAq6KOM1nXgZqL2qmdV27pKhEzjlcgm3bDkE9cmOMmaapKwC5Q52ANxQaRq3PSXKCC6TEZampRrE0CTXjmEKyPqV02qiqJvzGJCzkKIavc/AyomJ6BGg/pC5SEcg12AOaoWStbS6nqJQoXkzQE0G/mBt/jTeUZby+eFl+VQAAAABJRU5ErkJggg==;" parent="1" vertex="1">
          <mxGeometry x="770" y="-550" width="32" height="32" as="geometry" />
        </mxCell>
        <mxCell id="MXxVrp63OWO_Skx7xh7r-130" value="" style="edgeStyle=orthogonalEdgeStyle;rounded=0;orthogonalLoop=1;jettySize=auto;html=1;" parent="1" source="MXxVrp63OWO_Skx7xh7r-128" target="MXxVrp63OWO_Skx7xh7r-122" edge="1">
          <mxGeometry relative="1" as="geometry" />
        </mxCell>
        <mxCell id="MXxVrp63OWO_Skx7xh7r-128" value="Neon" style="rounded=0;whiteSpace=wrap;html=1;" parent="1" vertex="1">
          <mxGeometry x="590" y="-670" width="60" height="60" as="geometry" />
        </mxCell>
        <mxCell id="MXxVrp63OWO_Skx7xh7r-134" style="edgeStyle=orthogonalEdgeStyle;rounded=0;orthogonalLoop=1;jettySize=auto;html=1;entryX=0;entryY=0.5;entryDx=0;entryDy=0;" parent="1" source="MXxVrp63OWO_Skx7xh7r-135" target="MXxVrp63OWO_Skx7xh7r-139" edge="1">
          <mxGeometry relative="1" as="geometry" />
        </mxCell>
        <mxCell id="MXxVrp63OWO_Skx7xh7r-135" value="Nickel" style="rounded=0;whiteSpace=wrap;html=1;" parent="1" vertex="1">
          <mxGeometry x="450" y="-830" width="60" height="60" as="geometry" />
        </mxCell>
        <mxCell id="0eOiZARTwOGpSpS9e7_6-2" style="edgeStyle=orthogonalEdgeStyle;rounded=0;orthogonalLoop=1;jettySize=auto;html=1;entryX=0;entryY=0.5;entryDx=0;entryDy=0;" edge="1" parent="1" source="MXxVrp63OWO_Skx7xh7r-139" target="0eOiZARTwOGpSpS9e7_6-1">
          <mxGeometry relative="1" as="geometry" />
        </mxCell>
        <mxCell id="MXxVrp63OWO_Skx7xh7r-139" value="Electric Arc Furnace" style="shape=process;whiteSpace=wrap;html=1;backgroundOutline=1;fillColor=#ffe6cc;strokeColor=#d79b00;" parent="1" vertex="1">
          <mxGeometry x="560" y="-830" width="120" height="60" as="geometry" />
        </mxCell>
        <mxCell id="MXxVrp63OWO_Skx7xh7r-140" style="edgeStyle=orthogonalEdgeStyle;rounded=0;orthogonalLoop=1;jettySize=auto;html=1;entryX=0;entryY=0.5;entryDx=0;entryDy=0;" parent="1" source="MXxVrp63OWO_Skx7xh7r-141" target="MXxVrp63OWO_Skx7xh7r-135" edge="1">
          <mxGeometry relative="1" as="geometry" />
        </mxCell>
        <mxCell id="MXxVrp63OWO_Skx7xh7r-141" value="Ground Drill" style="shape=step;perimeter=stepPerimeter;whiteSpace=wrap;html=1;fixedSize=1;fillColor=#e1d5e7;strokeColor=#9673a6;" parent="1" vertex="1">
          <mxGeometry x="280" y="-840" width="120" height="80" as="geometry" />
        </mxCell>
        <mxCell id="MXxVrp63OWO_Skx7xh7r-154" style="edgeStyle=orthogonalEdgeStyle;rounded=0;orthogonalLoop=1;jettySize=auto;html=1;exitX=0.75;exitY=1;exitDx=0;exitDy=0;entryX=0.25;entryY=0;entryDx=0;entryDy=0;" parent="1" source="MXxVrp63OWO_Skx7xh7r-143" target="MXxVrp63OWO_Skx7xh7r-139" edge="1">
          <mxGeometry relative="1" as="geometry" />
        </mxCell>
        <mxCell id="MXxVrp63OWO_Skx7xh7r-143" value="Vanadium" style="rounded=0;whiteSpace=wrap;html=1;" parent="1" vertex="1">
          <mxGeometry x="550" y="-910" width="60" height="60" as="geometry" />
        </mxCell>
        <mxCell id="MXxVrp63OWO_Skx7xh7r-144" value="Nickel&lt;div&gt;Superalloy&lt;/div&gt;" style="rounded=0;whiteSpace=wrap;html=1;" parent="1" vertex="1">
          <mxGeometry x="1010" y="-830" width="60" height="60" as="geometry" />
        </mxCell>
        <mxCell id="MXxVrp63OWO_Skx7xh7r-149" value="" style="shape=image;verticalLabelPosition=bottom;labelBackgroundColor=default;verticalAlign=top;aspect=fixed;imageAspect=0;image=data:image/png,iVBORw0KGgoAAAANSUhEUgAAACAAAAAgCAYAAABzenr0AAAAAXNSR0IArs4c6QAAARJJREFUWIXtVjsOwjAMbREShZErdGfiMqy9Ru+StZdh6kEYWzaYIuVjO/4EkCreVDVx3suzE6dp/vgxWmnAcxhe/vvQ9/mC4yhakz05JA4BiZAIKU7CiDGkgkpCyEEpuUYEOqAll4rYQT8f15uJXAJQlRdwuhzRwM65KBZyjONC5kC4+2VeQeKUHBLERRYE2e+doHbtx1InSi7sOSqXec3SkRJpizZKAVV8WotFAriwHlGzgJrYtgDVPfApcgyRgPN9Qis9PCGaE4H1AtY9AKFzruW8EcTtuNSIUpewm8/0IJGKsEBVhDXbNavoKEBu+FiOU+SEGjstiSBTUDPXGFgEWifMKdAKkTinthgS842UbQ9vYFl3s1WsjekAAAAASUVORK5CYII=;" parent="1" vertex="1">
          <mxGeometry x="630" y="-630" width="32" height="32" as="geometry" />
        </mxCell>
        <mxCell id="MXxVrp63OWO_Skx7xh7r-150" value="" style="shape=image;verticalLabelPosition=bottom;labelBackgroundColor=default;verticalAlign=top;aspect=fixed;imageAspect=0;image=data:image/png,iVBORw0KGgoAAAANSUhEUgAAACAAAAAgCAYAAABzenr0AAAAAXNSR0IArs4c6QAAATxJREFUWIXVVzkOgzAQdCL+BAVFihT5QeQSpcibKFBKxA8oUlBQwKtIFWTM2jtrG0WZyliWZzx7CaX+GV3dLF3dLDF3nGPIY4i/OKUivz8fQXeJHUj18mABUnB5IrKNe70dBvs8FSbYgUrraOupB0ACUHIkP+wzrICYlyOVkTwJkbibZw6pAkmpHl6GSu1dML/ZGNk5cLtcg4kpsA682hbqFUVeqiIvN3tIKHYCKq0XX+b3w5skp9aIiI0Ak9hcoy64RMACbLicoFzwwefCKoBrOLYLnAjUhSRlOM0je8blgleAJPaUCMSFVYBNZn+nmIYUMh+pj5xqSNM8iipAqcBpiHZDMyyurphRmzFAEtJEUBVI+0ByAVIRvqEU1Qf64c0K4SYiVOehJYj0EdGQkQhBm1jQ7xQnRjo9f4oPuROaZlFV4GkAAAAASUVORK5CYII=;" parent="1" vertex="1">
          <mxGeometry x="-190" y="-632" width="32" height="32" as="geometry" />
        </mxCell>
        <mxCell id="MXxVrp63OWO_Skx7xh7r-155" style="edgeStyle=orthogonalEdgeStyle;rounded=0;orthogonalLoop=1;jettySize=auto;html=1;exitX=0.25;exitY=1;exitDx=0;exitDy=0;entryX=0.75;entryY=0;entryDx=0;entryDy=0;" parent="1" source="MXxVrp63OWO_Skx7xh7r-152" target="MXxVrp63OWO_Skx7xh7r-139" edge="1">
          <mxGeometry relative="1" as="geometry" />
        </mxCell>
        <mxCell id="MXxVrp63OWO_Skx7xh7r-152" value="Niobium" style="rounded=0;whiteSpace=wrap;html=1;" parent="1" vertex="1">
          <mxGeometry x="630" y="-910" width="60" height="60" as="geometry" />
        </mxCell>
        <mxCell id="MXxVrp63OWO_Skx7xh7r-156" value="" style="shape=image;verticalLabelPosition=bottom;labelBackgroundColor=default;verticalAlign=top;aspect=fixed;imageAspect=0;image=data:image/png,iVBORw0KGgoAAAANSUhEUgAAACAAAAAgCAYAAABzenr0AAAAAXNSR0IArs4c6QAAAWdJREFUWIXtljFqw0AQRcchpzDEXcCtO4ObNLlCDpEqR/ARUqXJBYwKX0BNmoA6tQJ3MvgaSbVhWf0/+3dtQyD51Uramf80I+2u2V/X7FqJ37YvX2H8vH2lPlcBiM1zEBcHQOYehAyglNQzZ7ESgFJSxRzFZgGUkpaYp7EugJe4H0Y7HE/29Lim8f0wmpnZarmgEDe15kFN22XnxONUEOBhs5bMGQSawyAmAMEcvZn3Jk3bWT+M7hz07BaZx0lDj73EJUrz/ACwsjdtZ/d38yqz+OOTW5AKma+WC/plI3N0LQEw85zYHHSfAtSYH46nHNskBwRQzdEipEK87/YzClAiBMEWp6B4LzgboBQi3cRkgNw6oECgbRwCsD6eA8HOELQCtRBI8pkQrYZsFUR/Ber7x2fnbvmThwpEqE5c8hpzM9ACFBS3Ix57/VXMzZwTkXcmYEYhRjV3ARSIEqMqAA/iEub/+hX6Bgb1x5U7N7x8AAAAAElFTkSuQmCC;" parent="1" vertex="1">
          <mxGeometry x="488" y="-792" width="32" height="32" as="geometry" />
        </mxCell>
        <mxCell id="MXxVrp63OWO_Skx7xh7r-157" value="" style="shape=image;verticalLabelPosition=bottom;labelBackgroundColor=default;verticalAlign=top;aspect=fixed;imageAspect=0;image=data:image/png,iVBORw0KGgoAAAANSUhEUgAAACAAAAAgCAYAAABzenr0AAAAAXNSR0IArs4c6QAAAeFJREFUWIXtlr1KA0EUhY8hTyDYCKIEJJAt0ouFkCKggmCZNDZBLCzWMiDpbFOK2AXSpLNMYbcvsMUGghBiY+krjEWY9c7snb/dgI0XApndmbnfnpwzG+C/POs7nYptzpO1E7rpbrtvXOM7LwiAeyJuc995QQA2Oenmk1FPNKIjAECrGQVB1Ew3ktlQLJaZceHjzZmQzel1fY3LEyxAMhvmi3wg9AqBKADQ5j4QpvKFUAAmo55YZWuvDfXi1vlA5AD0tzRBuMoFwRmyDgD9TiTmSYruaVvZTDq7KkSrGRnTUKeDMhAfn19OKFsUCyacJ6kyXmXr/FPGjIA5LYCmAIWgSlAYQD1suucnhcOHqzgeCE6JGgBM37PCDV0JCkGVCFGGS4HSuN+JlAmNgz3npseH+5u5Fq/YjmfFA5wSvmWLru08YD0AoOCBy+sLZTwevwLYpECqYEvNYpnlStw/POXXjS8j3QP6U8TxIP9Oo8gpIVOkN7cCbAuCftebOwGqQOjNTaliTaenAQDubq+Use5s6QngNxmm5tTsrAJcGp5f3pSxTQnf5oDjLxmnhC0dugqu5k6AEAjOYK7mXgA+ECaDuZp7A9ggqjQPAjBBhDasBOCCKPMuKfXy4SCqvMj+tH4A7skuuP9aZZQAAAAASUVORK5CYII=;" parent="1" vertex="1">
          <mxGeometry x="1050" y="-792" width="32" height="32" as="geometry" />
        </mxCell>
        <mxCell id="MXxVrp63OWO_Skx7xh7r-158" value="" style="shape=image;verticalLabelPosition=bottom;labelBackgroundColor=default;verticalAlign=top;aspect=fixed;imageAspect=0;image=data:image/png,iVBORw0KGgoAAAANSUhEUgAAACAAAAAgCAYAAABzenr0AAAAAXNSR0IArs4c6QAAAY5JREFUWIXllz9KQ0EQxr/kEiJikSLGYGdnE0NADyB2ljZiQNscwVYhYmNpJx5AIUQbOzuJMYWFiHgKrTa8t/NnZ9+uIDjVvmV2v9/Ozgz7gP9uNavj2fPbNzd/tNYw71EZQBLPARFcGBJPhVAXWcVTIMQFu8PLoHin20uGYJ0t4rkgiGOMeA6IklP/5pYVb7dXydx4dFf6XlhcJj7Dne0gRN0NNo4H4sknkxcy1+1tlb6/Pt+Jj3SgotV88fVNGk5nvxEJApADgrPr/j4LwQIAwN7BYXDTHBB1zhEAri7OowD8nOCMqzAxAs5SIxEq0flAg7DmhHQNGsT8Ch5PT8RMfbofiQCuRLUceBjL60s5UBWCC7t/agmCJGEshN+AisIWCLYKrBC+ONeEQhBqr9YSc2mlKYq3Wk3fnQi7niD2AUCPxMfrjBUHgOl05ruzlQAY34RVS1SKRLEjmh8OsRCcOEDfCVHPJyuEVTwawAIRI14JIATBmZbMlX8orBCaeBKABSIkngygQVjE/4T9AAIlsm2LhEEsAAAAAElFTkSuQmCC;" parent="1" vertex="1">
          <mxGeometry x="670" y="-872" width="32" height="32" as="geometry" />
        </mxCell>
        <mxCell id="0eOiZARTwOGpSpS9e7_6-4" value="" style="edgeStyle=orthogonalEdgeStyle;rounded=0;orthogonalLoop=1;jettySize=auto;html=1;" edge="1" parent="1" source="0eOiZARTwOGpSpS9e7_6-1" target="0eOiZARTwOGpSpS9e7_6-3">
          <mxGeometry relative="1" as="geometry" />
        </mxCell>
        <mxCell id="0eOiZARTwOGpSpS9e7_6-1" value="Molten&lt;div&gt;Superalloy&lt;/div&gt;" style="rounded=0;whiteSpace=wrap;html=1;" vertex="1" parent="1">
          <mxGeometry x="730" y="-830" width="60" height="60" as="geometry" />
        </mxCell>
        <mxCell id="0eOiZARTwOGpSpS9e7_6-7" style="edgeStyle=orthogonalEdgeStyle;rounded=0;orthogonalLoop=1;jettySize=auto;html=1;entryX=0;entryY=0.5;entryDx=0;entryDy=0;" edge="1" parent="1" source="0eOiZARTwOGpSpS9e7_6-3" target="MXxVrp63OWO_Skx7xh7r-144">
          <mxGeometry relative="1" as="geometry" />
        </mxCell>
        <mxCell id="0eOiZARTwOGpSpS9e7_6-3" value="Cryogenic Cooler" style="shape=process;whiteSpace=wrap;html=1;backgroundOutline=1;fillColor=#ffe6cc;strokeColor=#d79b00;" vertex="1" parent="1">
          <mxGeometry x="840" y="-830" width="120" height="60" as="geometry" />
        </mxCell>
        <mxCell id="0eOiZARTwOGpSpS9e7_6-10" value="" style="edgeStyle=orthogonalEdgeStyle;rounded=0;orthogonalLoop=1;jettySize=auto;html=1;" edge="1" parent="1" source="0eOiZARTwOGpSpS9e7_6-8" target="0eOiZARTwOGpSpS9e7_6-3">
          <mxGeometry relative="1" as="geometry" />
        </mxCell>
        <mxCell id="0eOiZARTwOGpSpS9e7_6-8" value="Cryogenic&lt;div&gt;Neon&lt;/div&gt;" style="rounded=0;whiteSpace=wrap;html=1;" vertex="1" parent="1">
          <mxGeometry x="870" y="-910" width="60" height="60" as="geometry" />
        </mxCell>
        <mxCell id="0eOiZARTwOGpSpS9e7_6-9" value="" style="shape=image;verticalLabelPosition=bottom;labelBackgroundColor=default;verticalAlign=top;aspect=fixed;imageAspect=0;image=data:image/png,iVBORw0KGgoAAAANSUhEUgAAACAAAAAgCAYAAABzenr0AAAAAXNSR0IArs4c6QAAAdlJREFUWIXFljFPAjEUx98RFxOd6pGwEJ0Ik5MTzM4sOvkBNC4YNwcGBjajkhD9AE6wMDPL5MR0ygIxThw3QXKTh4Ppeb17bV/hgH9C0vZ6/f/63ms5gC3LwgY9zwvbQdCBz+uvBe8XWvnEO5nMmdKEMSZ9ltERRs15Pz4WBB2SGaYdo9kIGI+Ic3XPoSzGmBBFlbQpiC1OUrndsKJrrJQCAIDi8y0KmoakAIwx4bdxgKjezu+MUpAKALWIMLnuy2oAPOQcotxuGNdA9GiqJF0Yq2LP88gnotDKW7Z9qZ2HRmDgTuE7+PeZ9GsAAPDz8UTxBoC/e4JSO2gEBu40bOeGzbDdq84Wh0e7YX+vWEy8O3ecxJgqhUoAbt6rzsKdcADMfBkINAXH9gHkhk3IluqouU4quLiU1f16cqM0p0ZBlQLpPRA1X6dIN6Es9FiuUwEw2T0FQnUctRGgFN7ccQQQDEoGsfQHiQzEVIkIbKr4pABxjUd+KkayoyikYB27H498uHh/0N8DKvNlo0B5j3QPmEKMR74wX7U5MgC2sMlzGYRFmZSWsFqQFsc6YIwAuCb9mvCXTNHp474FIH5HyE4COtjtdgEAoFKphJ9j8QVVxnFlS3Ud8/b0C+xf3gz5N0R6AAAAAElFTkSuQmCC;" vertex="1" parent="1">
          <mxGeometry x="910" y="-870" width="32" height="32" as="geometry" />
        </mxCell>
        <mxCell id="0eOiZARTwOGpSpS9e7_6-11" value="" style="shape=image;verticalLabelPosition=bottom;labelBackgroundColor=default;verticalAlign=top;aspect=fixed;imageAspect=0;image=data:image/png,iVBORw0KGgoAAAANSUhEUgAAACAAAAAgCAYAAABzenr0AAAAAXNSR0IArs4c6QAAAd1JREFUWIXFlrFqAjEYx/8nHaRrqiD0KLQP0A7SDvYFLBRcuvUBOncVHATXQp36AN1chIJ9AW+wdNCtCAqik+et0qVnh5Jr7u5LLtFT/3CQ5JL8f/nyJQTYsyyq0fO8oOz7LXx/Tle8ni3asTGZzJ3ShDEm/ZdJIhTNeT3a5vstLTNKB0a9CTAekeXHE4eyGGOhKKqUuAWRybVklxuWOMdGWwAAh5ePJGgakgIwxkLfzgFETd+rRluQCoBuElFy3ZfNAHjIOYRdbhjngHg0VZJOTGWx53naJyJbtK1c7iGxHxmBgbvAzP/3mTs1AMDP17OON4C/e0Ind8gIDNxFUC4Mm0G51xmvLq5PgvrxWSk2djZyYm2qLVSeAm7e64xXvc44tBrKXNauigQJcJ47QmHYRL5Uh2gsrl4lGRwlZXa/Ve+V5iojcSvW2gLRfJvSuglloacSLhUAk9XrQBgnoSidxJuNnBAIBSWDWPtBIgMxVSwCu0o+KUBU/e4kFSPZUQwBbGP1/e5E7x5Qma8bBZ1xWveAKUS/Own1Vy1OG4Ca2OS/DMLS6ZSWbhuvsVyQJsc2YIwAuOZODdG3QJKubk4tAKFxlLkUoN1uAwAqlUrwHItOqDKOKl+qJzHvT7+Pg9/3W970JwAAAABJRU5ErkJggg==;" vertex="1" parent="1">
          <mxGeometry x="778" y="-792" width="32" height="32" as="geometry" />
        </mxCell>
        <mxCell id="0eOiZARTwOGpSpS9e7_6-12" style="edgeStyle=orthogonalEdgeStyle;rounded=0;orthogonalLoop=1;jettySize=auto;html=1;entryX=0;entryY=0.5;entryDx=0;entryDy=0;" edge="1" parent="1" source="0eOiZARTwOGpSpS9e7_6-13" target="0eOiZARTwOGpSpS9e7_6-15">
          <mxGeometry relative="1" as="geometry" />
        </mxCell>
        <mxCell id="0eOiZARTwOGpSpS9e7_6-13" value="Vanadium" style="rounded=0;whiteSpace=wrap;html=1;" vertex="1" parent="1">
          <mxGeometry x="450" y="-1070" width="60" height="60" as="geometry" />
        </mxCell>
        <mxCell id="0eOiZARTwOGpSpS9e7_6-14" style="edgeStyle=orthogonalEdgeStyle;rounded=0;orthogonalLoop=1;jettySize=auto;html=1;entryX=0;entryY=0.5;entryDx=0;entryDy=0;" edge="1" parent="1" source="0eOiZARTwOGpSpS9e7_6-15" target="0eOiZARTwOGpSpS9e7_6-25">
          <mxGeometry relative="1" as="geometry" />
        </mxCell>
        <mxCell id="0eOiZARTwOGpSpS9e7_6-15" value="Incandescence&lt;div&gt;Compressor&lt;/div&gt;" style="shape=process;whiteSpace=wrap;html=1;backgroundOutline=1;fillColor=#ffe6cc;strokeColor=#d79b00;" vertex="1" parent="1">
          <mxGeometry x="560" y="-1070" width="120" height="60" as="geometry" />
        </mxCell>
        <mxCell id="0eOiZARTwOGpSpS9e7_6-16" style="edgeStyle=orthogonalEdgeStyle;rounded=0;orthogonalLoop=1;jettySize=auto;html=1;entryX=0;entryY=0.5;entryDx=0;entryDy=0;" edge="1" parent="1" source="0eOiZARTwOGpSpS9e7_6-17" target="0eOiZARTwOGpSpS9e7_6-13">
          <mxGeometry relative="1" as="geometry" />
        </mxCell>
        <mxCell id="0eOiZARTwOGpSpS9e7_6-17" value="Ground Drill" style="shape=step;perimeter=stepPerimeter;whiteSpace=wrap;html=1;fixedSize=1;fillColor=#e1d5e7;strokeColor=#9673a6;" vertex="1" parent="1">
          <mxGeometry x="280" y="-1080" width="120" height="80" as="geometry" />
        </mxCell>
        <mxCell id="0eOiZARTwOGpSpS9e7_6-18" style="edgeStyle=orthogonalEdgeStyle;rounded=0;orthogonalLoop=1;jettySize=auto;html=1;exitX=0.75;exitY=1;exitDx=0;exitDy=0;entryX=0.25;entryY=0;entryDx=0;entryDy=0;" edge="1" parent="1" source="0eOiZARTwOGpSpS9e7_6-19" target="0eOiZARTwOGpSpS9e7_6-15">
          <mxGeometry relative="1" as="geometry" />
        </mxCell>
        <mxCell id="0eOiZARTwOGpSpS9e7_6-19" value="Carbon&lt;div&gt;Powder&lt;/div&gt;" style="rounded=0;whiteSpace=wrap;html=1;" vertex="1" parent="1">
          <mxGeometry x="550" y="-1150" width="60" height="60" as="geometry" />
        </mxCell>
        <mxCell id="0eOiZARTwOGpSpS9e7_6-20" style="edgeStyle=orthogonalEdgeStyle;rounded=0;orthogonalLoop=1;jettySize=auto;html=1;exitX=0.25;exitY=1;exitDx=0;exitDy=0;entryX=0.75;entryY=0;entryDx=0;entryDy=0;" edge="1" parent="1" source="0eOiZARTwOGpSpS9e7_6-21" target="0eOiZARTwOGpSpS9e7_6-15">
          <mxGeometry relative="1" as="geometry" />
        </mxCell>
        <mxCell id="0eOiZARTwOGpSpS9e7_6-21" value="Heat" style="rounded=0;whiteSpace=wrap;html=1;" vertex="1" parent="1">
          <mxGeometry x="630" y="-1150" width="60" height="60" as="geometry" />
        </mxCell>
        <mxCell id="0eOiZARTwOGpSpS9e7_6-25" value="Vanadium&lt;div&gt;Carbide&lt;/div&gt;" style="rounded=0;whiteSpace=wrap;html=1;" vertex="1" parent="1">
          <mxGeometry x="730" y="-1070" width="60" height="60" as="geometry" />
        </mxCell>
        <mxCell id="0eOiZARTwOGpSpS9e7_6-27" value="" style="shape=image;verticalLabelPosition=bottom;labelBackgroundColor=default;verticalAlign=top;aspect=fixed;imageAspect=0;image=data:image/png,iVBORw0KGgoAAAANSUhEUgAAACAAAAAgCAYAAABzenr0AAAAAXNSR0IArs4c6QAAAVZJREFUWIXtVsENwyAMpFUXgBHICMzA1JkhIyQjwAjpi8gxZzBN+6iUk/po5PiOs2NszI0bP0KMcY8x7r24x6/I6f95nkUetYAQwpF0WRbxPenUkojnKHmLRGP5sAAtWQhhTymN8rdLQElKcuec4c84aEzBcAm47c65KjEiGkWzBBpLNSJSStWBVAI+EcEF0feRiBdKyAO5CHRq9EwjvnJAsmo0sRYnAd77Pedsyu+qCE1/HCXw3lcnzzkba+2wiFZPcHSbsOcEQssdPsCO4YAc0KDlEAV3ogwm1V3QgtYhyZXLAq6KOM1nXgZqL2qmdV27pKhEzjlcgm3bDkE9cmOMmaapKwC5Q52ANxQaRq3PSXKCC6TEZampRrE0CTXjmEKyPqV02qiqJvzGJCzkKIavc/AyomJ6BGg/pC5SEcg12AOaoWStbS6nqJQoXkzQE0G/mBt/jTeUZby+eFl+VQAAAABJRU5ErkJggg==;" vertex="1" parent="1">
          <mxGeometry x="590" y="-1112" width="32" height="32" as="geometry" />
        </mxCell>
        <mxCell id="0eOiZARTwOGpSpS9e7_6-28" value="" style="shape=image;verticalLabelPosition=bottom;labelBackgroundColor=default;verticalAlign=top;aspect=fixed;imageAspect=0;image=data:image/png,iVBORw0KGgoAAAANSUhEUgAAACAAAAAgCAYAAABzenr0AAAAAXNSR0IArs4c6QAAAPFJREFUWIXtlc0NwjAMhVuVEZAQO3BAYgqmYLZO0SmYo2IIBKdEqRv/xgaE+q6t874k9kvXbfqyeuzD83Z9ccXDOKH1ZoDH5ZiN96ezaBENSNpYqlkUlualJCAcRO1Eh3HqcxFm3gpCXWUGoMwP93m1M0l/SEQC1Iw9QRY9AAEk5lYIeEWrHtCYa0A8RjZEKFWtL+AUhAcRphYQUxBJQD4SRBxEDSQkiOD/0jdDBSAZxxYQtyDSQoQFUarHAP4jiKCsp0UCWMbR8ni5BJEGAguinYd5WQ9BuFfSJYg4UZPhGkQakLAg4gTXdg8iqfGmn9Eb3v+09LKukNQAAAAASUVORK5CYII=;" vertex="1" parent="1">
          <mxGeometry x="670" y="-1112" width="32" height="32" as="geometry" />
        </mxCell>
        <mxCell id="0eOiZARTwOGpSpS9e7_6-29" value="" style="shape=image;verticalLabelPosition=bottom;labelBackgroundColor=default;verticalAlign=top;aspect=fixed;imageAspect=0;image=data:image/png,iVBORw0KGgoAAAANSUhEUgAAACAAAAAgCAYAAABzenr0AAAAAXNSR0IArs4c6QAAAYhJREFUWIXtljFuwjAUhv+gzrDRoUs3UGi5AHPHqhNSkXoGTkAv0YkjIDExI7HlAJAWpWLp0qFscAE6vWA77/kZCFKl8kuREtvJ9/k5hgCX/PdE2oDHl9cdnT88PRf6+92W+oyjBUz4uSTEGzm4TyIknCgrIMFvmnF+HjfaB8GXnwsAwHDQs5jWRfO+s6vW6ri+vfPC3WgyBKeYEhUTTuc/X+/BcA7g64sbbbyNP3JW5MKrtToAWFXQBELjVqrfbUUVYWzpkZbp6pwA39JQSqmANLuQnRIk8J0txXapLzSigLsTXJB5PZ2MVJC0HN4KcBLSrDmJ6WRkjeUkxG1ohvthOjTcVh4OemHb0K2E2U6HFuldKVQA4KsA2JXgoG6laAxXwdV8hixNIlbAJ6GFYK6gKbGazwBgL1C2BJftZl1oy9Jk/w5kaVL4a+Zu2m7W+XEKnFKA+irBPUirkgSnCbMfJJyEFldEKrnbJn6SnSIRCvcKHCvBRYKrAiHRJH3wUgR8Ehr8kj+RX6+ruukSN8NTAAAAAElFTkSuQmCC;" vertex="1" parent="1">
          <mxGeometry x="770" y="-1030" width="32" height="32" as="geometry" />
        </mxCell>
        <mxCell id="0eOiZARTwOGpSpS9e7_6-30" style="edgeStyle=orthogonalEdgeStyle;rounded=0;orthogonalLoop=1;jettySize=auto;html=1;entryX=0;entryY=0.5;entryDx=0;entryDy=0;" edge="1" parent="1" source="0eOiZARTwOGpSpS9e7_6-31" target="0eOiZARTwOGpSpS9e7_6-33">
          <mxGeometry relative="1" as="geometry" />
        </mxCell>
        <mxCell id="0eOiZARTwOGpSpS9e7_6-31" value="Phosphorus" style="rounded=0;whiteSpace=wrap;html=1;fontSize=11;" vertex="1" parent="1">
          <mxGeometry x="450" y="-110" width="60" height="60" as="geometry" />
        </mxCell>
        <mxCell id="0eOiZARTwOGpSpS9e7_6-32" style="edgeStyle=orthogonalEdgeStyle;rounded=0;orthogonalLoop=1;jettySize=auto;html=1;entryX=0;entryY=0.5;entryDx=0;entryDy=0;" edge="1" parent="1" source="0eOiZARTwOGpSpS9e7_6-33" target="0eOiZARTwOGpSpS9e7_6-41">
          <mxGeometry relative="1" as="geometry" />
        </mxCell>
        <mxCell id="0eOiZARTwOGpSpS9e7_6-33" value="Chemical&lt;div&gt;Reactor&lt;/div&gt;" style="shape=process;whiteSpace=wrap;html=1;backgroundOutline=1;fillColor=#ffe6cc;strokeColor=#d79b00;" vertex="1" parent="1">
          <mxGeometry x="560" y="-110" width="120" height="60" as="geometry" />
        </mxCell>
        <mxCell id="0eOiZARTwOGpSpS9e7_6-34" style="edgeStyle=orthogonalEdgeStyle;rounded=0;orthogonalLoop=1;jettySize=auto;html=1;entryX=0;entryY=0.5;entryDx=0;entryDy=0;" edge="1" parent="1" source="0eOiZARTwOGpSpS9e7_6-35" target="0eOiZARTwOGpSpS9e7_6-31">
          <mxGeometry relative="1" as="geometry" />
        </mxCell>
        <mxCell id="0eOiZARTwOGpSpS9e7_6-35" value="Ground Drill" style="shape=step;perimeter=stepPerimeter;whiteSpace=wrap;html=1;fixedSize=1;fillColor=#e1d5e7;strokeColor=#9673a6;" vertex="1" parent="1">
          <mxGeometry x="280" y="-120" width="120" height="80" as="geometry" />
        </mxCell>
        <mxCell id="0eOiZARTwOGpSpS9e7_6-45" value="" style="edgeStyle=orthogonalEdgeStyle;rounded=0;orthogonalLoop=1;jettySize=auto;html=1;" edge="1" parent="1" source="0eOiZARTwOGpSpS9e7_6-37" target="0eOiZARTwOGpSpS9e7_6-33">
          <mxGeometry relative="1" as="geometry" />
        </mxCell>
        <mxCell id="0eOiZARTwOGpSpS9e7_6-37" value="Steam" style="rounded=0;whiteSpace=wrap;html=1;" vertex="1" parent="1">
          <mxGeometry x="590" y="-190" width="60" height="60" as="geometry" />
        </mxCell>
        <mxCell id="0eOiZARTwOGpSpS9e7_6-41" value="Phosphoric&lt;div&gt;Acid&lt;/div&gt;" style="rounded=0;whiteSpace=wrap;html=1;" vertex="1" parent="1">
          <mxGeometry x="730" y="-110" width="60" height="60" as="geometry" />
        </mxCell>
        <mxCell id="0eOiZARTwOGpSpS9e7_6-46" value="" style="shape=image;verticalLabelPosition=bottom;labelBackgroundColor=default;verticalAlign=top;aspect=fixed;imageAspect=0;image=data:image/png,iVBORw0KGgoAAAANSUhEUgAAACAAAAAgCAYAAABzenr0AAAAAXNSR0IArs4c6QAAAO5JREFUWIXtlTsSwjAMRGXuAg0cgNy/gANAA4cRVTJG0d8CZoAtE9n7vEosgL8+rBZdgIiobthaaE93sWWcBTGLosZREPXlqLkHQnxRZW5BbLiHp8ut1FwTCwAAcL7e1YWNyDKSEl0tpKc/7rcr46iJtlZMYFafBN0AO1lwEqAJQCGkzXqQiJ4AtI8vesOlALyq/EVTAJX6LYDUb/hqmRdRr+mwW+qrxnM6Afe8N67qEABNRx2zzhnBFljTsG/FqFItqBzX4km8Jlwa81pPUmpBxUktCLUFlb2W5DLIJjHcgixIJLl0xBzMO1r2fXoAA3p6AuvvZekAAAAASUVORK5CYII=;" vertex="1" parent="1">
          <mxGeometry x="630" y="-152" width="32" height="32" as="geometry" />
        </mxCell>
        <mxCell id="0eOiZARTwOGpSpS9e7_6-47" value="" style="shape=image;verticalLabelPosition=bottom;labelBackgroundColor=default;verticalAlign=top;aspect=fixed;imageAspect=0;image=data:image/png,iVBORw0KGgoAAAANSUhEUgAAACAAAAAgCAYAAABzenr0AAAAAXNSR0IArs4c6QAAAW5JREFUWIXtl79uwjAQxo8+A09A5wgJITHzEu2CIjF3QTwIYmFGQiztS2SuVCFFzPQJeIcwObLP98+x2y79Niexv1/uzs4F4I81Snn41jSdP35eLpPmZwFg81IQpsmceQkIdeL7fk+az6fTIhDiJM68JAQ7QQr7V9uSEJOqChcfj1Ug8gEt5yUhopvd/c6af1+vxSGCG+7N8QI/CdFfxGG3QvgAvl5Wq9iMgHiymGBJcE4f53N0jUpvD3A4HpMgAPi3T4HoQ7Kt6w4A4G29FhflzP2QY2MpHVEKqEho5vhAwoZUJJzIGpAgOHOcLisEW4QUhJbzIRAsAIbQzIdCBPvSFaKmxWwWjHENAMRbFRu/bjZxEe5OJ9PX7PNyCcZUdLRIOEUp+G0Ik5mUGks6sPy+QSxCJykqOBIp5maAUhBUx2QGyIXg2rUkgKEQUq84uJ22nhnarsr6qdAgLFs6+9eKg7CeJ9kAFITV/F8AAA9RM8gbttNH9gAAAABJRU5ErkJggg==;" vertex="1" parent="1">
          <mxGeometry x="490" y="-72" width="32" height="32" as="geometry" />
        </mxCell>
        <mxCell id="0eOiZARTwOGpSpS9e7_6-48" value="" style="shape=image;verticalLabelPosition=bottom;labelBackgroundColor=default;verticalAlign=top;aspect=fixed;imageAspect=0;image=data:image/png,iVBORw0KGgoAAAANSUhEUgAAACAAAAAgCAYAAABzenr0AAAAAXNSR0IArs4c6QAAATxJREFUWIXVVzkOgzAQdCL+BAVFihT5QeQSpcibKFBKxA8oUlBQwKtIFWTM2jtrG0WZyliWZzx7CaX+GV3dLF3dLDF3nGPIY4i/OKUivz8fQXeJHUj18mABUnB5IrKNe70dBvs8FSbYgUrraOupB0ACUHIkP+wzrICYlyOVkTwJkbibZw6pAkmpHl6GSu1dML/ZGNk5cLtcg4kpsA682hbqFUVeqiIvN3tIKHYCKq0XX+b3w5skp9aIiI0Ak9hcoy64RMACbLicoFzwwefCKoBrOLYLnAjUhSRlOM0je8blgleAJPaUCMSFVYBNZn+nmIYUMh+pj5xqSNM8iipAqcBpiHZDMyyurphRmzFAEtJEUBVI+0ByAVIRvqEU1Qf64c0K4SYiVOehJYj0EdGQkQhBm1jQ7xQnRjo9f4oPuROaZlFV4GkAAAAASUVORK5CYII=;" vertex="1" parent="1">
          <mxGeometry x="770" y="-72" width="32" height="32" as="geometry" />
        </mxCell>
        <mxCell id="0eOiZARTwOGpSpS9e7_6-49" style="edgeStyle=orthogonalEdgeStyle;rounded=0;orthogonalLoop=1;jettySize=auto;html=1;entryX=0;entryY=0.5;entryDx=0;entryDy=0;" edge="1" parent="1" source="0eOiZARTwOGpSpS9e7_6-50" target="0eOiZARTwOGpSpS9e7_6-52">
          <mxGeometry relative="1" as="geometry" />
        </mxCell>
        <mxCell id="0eOiZARTwOGpSpS9e7_6-50" value="Phosphorus" style="rounded=0;whiteSpace=wrap;html=1;fontSize=11;" vertex="1" parent="1">
          <mxGeometry x="450" y="-1310" width="60" height="60" as="geometry" />
        </mxCell>
        <mxCell id="0eOiZARTwOGpSpS9e7_6-51" style="edgeStyle=orthogonalEdgeStyle;rounded=0;orthogonalLoop=1;jettySize=auto;html=1;entryX=0;entryY=0.5;entryDx=0;entryDy=0;" edge="1" parent="1" source="0eOiZARTwOGpSpS9e7_6-52" target="0eOiZARTwOGpSpS9e7_6-57">
          <mxGeometry relative="1" as="geometry" />
        </mxCell>
        <mxCell id="0eOiZARTwOGpSpS9e7_6-52" value="Chemical Reactor" style="shape=process;whiteSpace=wrap;html=1;backgroundOutline=1;fillColor=#ffe6cc;strokeColor=#d79b00;" vertex="1" parent="1">
          <mxGeometry x="560" y="-1310" width="120" height="60" as="geometry" />
        </mxCell>
        <mxCell id="0eOiZARTwOGpSpS9e7_6-53" style="edgeStyle=orthogonalEdgeStyle;rounded=0;orthogonalLoop=1;jettySize=auto;html=1;entryX=0;entryY=0.5;entryDx=0;entryDy=0;" edge="1" parent="1" source="0eOiZARTwOGpSpS9e7_6-54" target="0eOiZARTwOGpSpS9e7_6-50">
          <mxGeometry relative="1" as="geometry" />
        </mxCell>
        <mxCell id="0eOiZARTwOGpSpS9e7_6-54" value="Blast Furnace" style="shape=step;perimeter=stepPerimeter;whiteSpace=wrap;html=1;fixedSize=1;fillColor=#e1d5e7;strokeColor=#9673a6;" vertex="1" parent="1">
          <mxGeometry x="280" y="-1320" width="120" height="80" as="geometry" />
        </mxCell>
        <mxCell id="0eOiZARTwOGpSpS9e7_6-67" style="edgeStyle=orthogonalEdgeStyle;rounded=0;orthogonalLoop=1;jettySize=auto;html=1;exitX=0.75;exitY=1;exitDx=0;exitDy=0;entryX=0.25;entryY=0;entryDx=0;entryDy=0;" edge="1" parent="1" source="0eOiZARTwOGpSpS9e7_6-56" target="0eOiZARTwOGpSpS9e7_6-52">
          <mxGeometry relative="1" as="geometry" />
        </mxCell>
        <mxCell id="0eOiZARTwOGpSpS9e7_6-56" value="Reso&lt;div&gt;Crystal&lt;/div&gt;" style="rounded=0;whiteSpace=wrap;html=1;" vertex="1" parent="1">
          <mxGeometry x="550" y="-1390" width="60" height="60" as="geometry" />
        </mxCell>
        <mxCell id="0eOiZARTwOGpSpS9e7_6-57" value="Resonating&lt;div&gt;Fuel&lt;/div&gt;" style="rounded=0;whiteSpace=wrap;html=1;" vertex="1" parent="1">
          <mxGeometry x="730" y="-1310" width="60" height="60" as="geometry" />
        </mxCell>
        <mxCell id="0eOiZARTwOGpSpS9e7_6-59" value="" style="shape=image;verticalLabelPosition=bottom;labelBackgroundColor=default;verticalAlign=top;aspect=fixed;imageAspect=0;image=data:image/png,iVBORw0KGgoAAAANSUhEUgAAACAAAAAgCAYAAABzenr0AAAAAXNSR0IArs4c6QAAAW5JREFUWIXtl79uwjAQxo8+A09A5wgJITHzEu2CIjF3QTwIYmFGQiztS2SuVCFFzPQJeIcwObLP98+x2y79Niexv1/uzs4F4I81Snn41jSdP35eLpPmZwFg81IQpsmceQkIdeL7fk+az6fTIhDiJM68JAQ7QQr7V9uSEJOqChcfj1Ug8gEt5yUhopvd/c6af1+vxSGCG+7N8QI/CdFfxGG3QvgAvl5Wq9iMgHiymGBJcE4f53N0jUpvD3A4HpMgAPi3T4HoQ7Kt6w4A4G29FhflzP2QY2MpHVEKqEho5vhAwoZUJJzIGpAgOHOcLisEW4QUhJbzIRAsAIbQzIdCBPvSFaKmxWwWjHENAMRbFRu/bjZxEe5OJ9PX7PNyCcZUdLRIOEUp+G0Ik5mUGks6sPy+QSxCJykqOBIp5maAUhBUx2QGyIXg2rUkgKEQUq84uJ22nhnarsr6qdAgLFs6+9eKg7CeJ9kAFITV/F8AAA9RM8gbttNH9gAAAABJRU5ErkJggg==;" vertex="1" parent="1">
          <mxGeometry x="490" y="-1272" width="32" height="32" as="geometry" />
        </mxCell>
        <mxCell id="0eOiZARTwOGpSpS9e7_6-63" style="edgeStyle=orthogonalEdgeStyle;rounded=0;orthogonalLoop=1;jettySize=auto;html=1;exitX=0.25;exitY=1;exitDx=0;exitDy=0;entryX=0.75;entryY=0;entryDx=0;entryDy=0;" edge="1" parent="1" source="0eOiZARTwOGpSpS9e7_6-61" target="0eOiZARTwOGpSpS9e7_6-52">
          <mxGeometry relative="1" as="geometry" />
        </mxCell>
        <mxCell id="0eOiZARTwOGpSpS9e7_6-61" value="Water" style="rounded=0;whiteSpace=wrap;html=1;" vertex="1" parent="1">
          <mxGeometry x="630" y="-1390" width="60" height="60" as="geometry" />
        </mxCell>
        <mxCell id="0eOiZARTwOGpSpS9e7_6-65" value="" style="shape=image;verticalLabelPosition=bottom;labelBackgroundColor=default;verticalAlign=top;aspect=fixed;imageAspect=0;image=data:image/png,iVBORw0KGgoAAAANSUhEUgAAACAAAAAgCAYAAABzenr0AAAAAXNSR0IArs4c6QAAAbVJREFUWIXNljFywjAQRb/TkYYmmaGh9zF0BJrcwRU5RArqUPkONPS5QI7AETyTFLhIoFMaVpFXK2lleybZShiN3uNrFwD+uKq5D7RNY93hbZs9f1YBH66VmE3gyxgLAPd1HUISErMIEJyqROJubjgAfB6PwT7peoCJCUjw79PJrR82mxDIkhgtkINrJUYJaOEaiWKBj9VKvMsx9dh1VVKAf6lsAQsA9WIR7H1aLqPnvJ/PwbO36xV7oIpOAY/ZlzldLsH+Q98XwalEAYLze31tGrfWSOTgogD/5HymtRIaOMCakMNTM/3ctm4t9cTaDnuVw/c3tksgBQfKk9DAgdtiymi9dJ1b+0lQAim4E9gClscojRW/V+lO6Zy1tVk44F0BjzHX0f7h0nVo4AOBlIQGnuqJGDwQSElI8J0xg2b1JTRwwHuTvmapcg21M8atSYJGlUY0Bwe8BPhmnkQODvyOKiXBP5RUgaGUhDTnlBCfFr9fSLqoB3JJ8Od+j0jwXIk/RjHjmNyh7wciWnhUQILR65JekfbzGv2fUNMrmimY9K841eUa+GSBmIQWPosAlyiB/4v6ASPdJQbJi4TeAAAAAElFTkSuQmCC;" vertex="1" parent="1">
          <mxGeometry x="590" y="-1352" width="32" height="32" as="geometry" />
        </mxCell>
        <mxCell id="0eOiZARTwOGpSpS9e7_6-69" value="" style="shape=image;verticalLabelPosition=bottom;labelBackgroundColor=default;verticalAlign=top;aspect=fixed;imageAspect=0;image=data:image/png,iVBORw0KGgoAAAANSUhEUgAAACAAAAAgCAYAAABzenr0AAAAAXNSR0IArs4c6QAAAcBJREFUWIXNlTFLw0AUx/8Rd6mDQ7FdhFBwU+jqIBi6t34B0QydHNtV0E/gUMXJoVCyi4UKjgaaQSmUgosNHToU/ARxMWli3t29Sy3tHzLc5e693/vnXg5YsQxqMgiC+cCzUXmwo4mns1Z6z0FLnsQg0/AAKnUvoNakQCQQSwEgQQQQMoANWfAX9wP3jR3xbiDxebKIDN57ewcAmPlcNHd+M+U5QbiQ2YG42E54NjekGMDM5xLVc5UFgu3AsqQFoPoMgL4LS3FApzM2qclOzwUAnB6XAQDB42XsbYNP4tnKv6TUgU7PTSSvPp8kKiuZhdQTKnTB930pAOlAqNqkTSYOk1MqmQUMR+NovDu9kgIIHahN2ig2nUTy7f1DabC/cJyzQAKElZeP7oTJ41UuIqEDlO1ZpHKB1YYi6//DBRJAp/pFIZQOcA7ecDROgOhASdtQV1ncWP/LaDborxZgUakKYAFkdYGzjwRwrG7q3teBmA360XoqVlxaXRAGFbVmFqeEAI7VNUQ/JG4iVfWA5AwUmw7c1wtlAJG4e0kHbr/38HVd/R2JnRDJsboGrKp6oQgghKhvfc4DQn1HcCxfO/0ANyS1xj23xqQAAAAASUVORK5CYII=;" vertex="1" parent="1">
          <mxGeometry x="670" y="-1352" width="32" height="32" as="geometry" />
        </mxCell>
        <mxCell id="0eOiZARTwOGpSpS9e7_6-70" value="" style="shape=image;verticalLabelPosition=bottom;labelBackgroundColor=default;verticalAlign=top;aspect=fixed;imageAspect=0;image=data:image/png,iVBORw0KGgoAAAANSUhEUgAAACAAAAAgCAYAAABzenr0AAAAAXNSR0IArs4c6QAAAcRJREFUWIXtVztuAjEQHaOcAAISXZSShiZUyxEioUgp0yJFyh2I4AhIVLQpkSIkjrBUodlmC4ooRSo+e4SQyo53dsYeLyE0eQ3+jP2e39heA/APAHjrdg/n4lY2eSeOlRakyxhY7NXrg6rXHwtx+/3elGu1mhmH561wBJQrVNvH3cvB56Ddj2MrXCBHKCGx8d7r5doLDnBWUxP7YkPJAYgUHCPCjpOQGwFU5/V8HrRaDHtOl+gKFaTLZURgt3xzsJ34GHEkHKT7hdwDyXYHn18/HJvlwPxKT4Y0jlSZbHem3FyPTXnSnx1uq1VTv2m3C2NXSZKr+5y4cHVq8kl/VlgNRa7bsQgXyBS065fQXI+hEY1y5PbqXbDF+VLB3gONaATPrRZLHrLKUgJs8lNCdBNy1v+GC6SAkNVLRLj2gdcBycZbJUlOSIgzzmMYijIpEe2BU+JPBNi3ofNFRGGRZUeR2+Op557IgbIiJOPEKQgRscgyb7x2QdkVO1euu4A7mhTpME1zX0P8YFF4U0hFSOAi11BUB/6GlxEiIQdgHqU4eJimCk/owtP0XhTbiWNFEvteMZwjmrgRjUzbZjkwdddfvrPhG1QS/dZdRArNAAAAAElFTkSuQmCC;" vertex="1" parent="1">
          <mxGeometry x="770" y="-1272" width="32" height="32" as="geometry" />
        </mxCell>
        <mxCell id="0eOiZARTwOGpSpS9e7_6-71" value="" style="shape=image;verticalLabelPosition=bottom;labelBackgroundColor=default;verticalAlign=top;aspect=fixed;imageAspect=0;image=data:image/png,iVBORw0KGgoAAAANSUhEUgAAACAAAAAgCAYAAABzenr0AAAAAXNSR0IArs4c6QAAAUhJREFUWIXtlkEKwjAQRWNPIe5058puBTe9hTcQweMI4g28hRvBbbvqrt2V3qKuJqTTmekkjQjSD0JpSP7rzI+JMbN+rIU0eL7cO/zudj2Jc6IApGnW7Q9HdlJMiMFCaZp1xhgjAUjyhUsoc6y6KtQLUm1TAXDmoRBakIQbeL8e9nm92XlDAEgwAIaQVFeF/flC2MCMtWC52tpnqAiGkMa5cIoVcNU2JWlGmfpUggRwv5bTWB60eWErQEG4VYgFQQKAUQyIIIAQCA0IlQNVCDWZaJtyAAZwEkRva1Bb0TV3Dbj3HDTemrAtexXI8+dgr3Km7sLUwaXNiqoFGIIC0ZyeFETQHxG3KIbg5gQBfAuCvRH5gFHm+CCDtkEYyRCCqDBq5JpqK8G2IAYEJ/dkHDUJbQcn/GGTbre+cFRVJ1+vtRChLZ31//oALS+96LPxo28AAAAASUVORK5CYII=;" vertex="1" parent="1">
          <mxGeometry x="488" y="-1032" width="32" height="32" as="geometry" />
        </mxCell>
        <mxCell id="0eOiZARTwOGpSpS9e7_6-72" value="" style="shape=image;verticalLabelPosition=bottom;labelBackgroundColor=default;verticalAlign=top;aspect=fixed;imageAspect=0;image=data:image/png,iVBORw0KGgoAAAANSUhEUgAAACAAAAAgCAYAAABzenr0AAAAAXNSR0IArs4c6QAAAUhJREFUWIXtlkEKwjAQRWNPIe5058puBTe9hTcQweMI4g28hRvBbbvqrt2V3qKuJqTTmekkjQjSD0JpSP7rzI+JMbN+rIU0eL7cO/zudj2Jc6IApGnW7Q9HdlJMiMFCaZp1xhgjAUjyhUsoc6y6KtQLUm1TAXDmoRBakIQbeL8e9nm92XlDAEgwAIaQVFeF/flC2MCMtWC52tpnqAiGkMa5cIoVcNU2JWlGmfpUggRwv5bTWB60eWErQEG4VYgFQQKAUQyIIIAQCA0IlQNVCDWZaJtyAAZwEkRva1Bb0TV3Dbj3HDTemrAtexXI8+dgr3Km7sLUwaXNiqoFGIIC0ZyeFETQHxG3KIbg5gQBfAuCvRH5gFHm+CCDtkEYyRCCqDBq5JpqK8G2IAYEJ/dkHDUJbQcn/GGTbre+cFRVJ1+vtRChLZ31//oALS+96LPxo28AAAAASUVORK5CYII=;" vertex="1" parent="1">
          <mxGeometry x="590" y="-870" width="32" height="32" as="geometry" />
        </mxCell>
        <mxCell id="0eOiZARTwOGpSpS9e7_6-73" value="" style="shape=image;verticalLabelPosition=bottom;labelBackgroundColor=default;verticalAlign=top;aspect=fixed;imageAspect=0;image=data:image/png,iVBORw0KGgoAAAANSUhEUgAAACAAAAAgCAYAAABzenr0AAAAAXNSR0IArs4c6QAAAUhJREFUWIXtlkEKwjAQRWNPIe5058puBTe9hTcQweMI4g28hRvBbbvqrt2V3qKuJqTTmekkjQjSD0JpSP7rzI+JMbN+rIU0eL7cO/zudj2Jc6IApGnW7Q9HdlJMiMFCaZp1xhgjAUjyhUsoc6y6KtQLUm1TAXDmoRBakIQbeL8e9nm92XlDAEgwAIaQVFeF/flC2MCMtWC52tpnqAiGkMa5cIoVcNU2JWlGmfpUggRwv5bTWB60eWErQEG4VYgFQQKAUQyIIIAQCA0IlQNVCDWZaJtyAAZwEkRva1Bb0TV3Dbj3HDTemrAtexXI8+dgr3Km7sLUwaXNiqoFGIIC0ZyeFETQHxG3KIbg5gQBfAuCvRH5gFHm+CCDtkEYyRCCqDBq5JpqK8G2IAYEJ/dkHDUJbQcn/GGTbre+cFRVJ1+vtRChLZ31//oALS+96LPxo28AAAAASUVORK5CYII=;" vertex="1" parent="1">
          <mxGeometry x="10" y="-392" width="32" height="32" as="geometry" />
        </mxCell>
      </root>
    </mxGraphModel>
  </diagram>
</mxfile>
